<?xml version="1.0" standalone="no"?>
<!DOCTYPE svg PUBLIC "-//W3C//DTD SVG 1.1//EN" "http://www.w3.org/Graphics/SVG/1.1/DTD/svg11.dtd" >
<svg xmlns="http://www.w3.org/2000/svg" xmlns:xlink="http://www.w3.org/1999/xlink" version="1.1">
<metadata></metadata>
<defs>
<font id="fashion_-_italicfashionIt" horiz-adv-x="1105" >
<font-face units-per-em="2048" ascent="1536" descent="-512" />
<missing-glyph horiz-adv-x="409" />
<glyph horiz-adv-x="0" />
<glyph unicode="&#xd;" horiz-adv-x="409" />
<glyph unicode=" "  horiz-adv-x="409" />
<glyph unicode="&#x09;" horiz-adv-x="409" />
<glyph unicode="&#xa0;" horiz-adv-x="409" />
<glyph unicode="!" horiz-adv-x="348" d="M-66 72q6 29 33 50t53 21q29 0 44.5 -21.5t9.5 -49.5q-8 -29 -35 -50.5t-53 -21.5q-29 0 -44.5 21.5t-7.5 50.5zM43 307l276 1127h82l-317 -1127h-41z" />
<glyph unicode="&#x22;" horiz-adv-x="454" d="M88 1290l45 254h82l-86 -254h-41zM256 1290l45 254h82l-86 -254h-41z" />
<glyph unicode="#" horiz-adv-x="1003" d="M98 553l21 82h170l84 164h-209l20 82h228l114 225h84l-114 -225h163l115 225h84l-115 -225h158l-20 -82h-176l-84 -164h215l-21 -82h-235l-113 -225h-84l113 225h-164l-113 -225h-84l113 225h-150zM373 635h164l84 164h-164z" />
<glyph unicode="$" horiz-adv-x="1044" d="M10 247q-10 77 8 163h82q-16 -66 -8 -123.5t36 -102.5t74 -73.5t107 -36.5l178 671q-61 16 -108 47t-77 72t-41 94.5t5 116.5q20 80 66.5 147.5t106 117t131 77t143.5 27.5q104 0 180 -48t113 -128l-80 -45q-27 55 -76 91t-119 46l-143 -543q78 -16 137 -52t97 -87 t48.5 -116.5t-8.5 -141.5q-25 -92 -79 -171t-125.5 -136.5t-157.5 -90t-172 -32.5t-154 32.5t-111 90t-53 134.5zM348 1075q-23 -90 26.5 -150.5t137.5 -88.5l137 522q-104 -14 -187 -90t-114 -193zM391 74q63 6 126 34.5t115 74.5t91 105.5t57 131.5q14 59 3 107t-39.5 87 t-75.5 67t-105 46z" />
<glyph unicode="%" horiz-adv-x="978" d="M80 0l721 1434h84l-721 -1434h-84zM189 1145q-6 39 6 84q10 45 37.5 84t64.5 67.5t81 46t89 17.5t79 -17.5t55.5 -46t27.5 -67.5t-4 -84q-12 -45 -40 -84t-64 -68.5t-80 -46t-89 -16.5t-78.5 16.5t-56 46t-28.5 68.5zM276 1229q-14 -55 14.5 -94t84.5 -39q55 0 104 39 t64 94q14 55 -14.5 94t-84.5 39q-55 0 -104.5 -39t-63.5 -94zM335 121q-5 39 5 84q12 45 39 84t63.5 67.5t80.5 46t89 17.5t79 -17.5t55.5 -46t28.5 -67.5t-5 -84q-10 -45 -39 -84t-64.5 -68.5t-79.5 -46t-89 -16.5t-79 16.5t-56.5 46t-27.5 68.5zM422 205q-14 -55 14.5 -94 t83.5 -39t104.5 39t63.5 94t-14.5 94t-83.5 39t-104.5 -39t-63.5 -94z" />
<glyph unicode="&#x26;" horiz-adv-x="1261" d="M0 221.5q-10 69.5 10 147.5q18 74 56 132t90.5 108t115 94.5t131.5 91.5q29 16 55.5 34.5t57.5 40.5q-59 0 -104 24t-74 61.5t-37 90t6 111.5q18 59 54 111.5t85.5 91.5t107.5 61.5t118 22.5q59 0 105 -22.5t75 -61.5t38 -91t-9 -112q-12 -53 -43 -100t-72 -84 q-90 -78 -173 -136.5t-157 -107.5q-66 -43 -121 -82t-100 -80t-77 -89t-46 -109q-18 -61 -9 -115.5t39 -94.5t78 -63.5t109 -23.5t122 23.5t111 63.5t88 94t56 116q6 33 10 63.5t-4 56.5q-18 63 -37.5 125t-33.5 127l77 56q51 -225 138.5 -425t214.5 -372h-113 q-106 152 -184 330q-27 -72 -75 -133.5t-111.5 -107.5t-135.5 -72.5t-145 -26.5q-78 0 -139.5 29.5t-99.5 81t-48 121zM389 1157q-20 -86 24 -145.5t130 -59.5t160.5 59.5t95.5 145.5q25 86 -19.5 145.5t-130.5 59.5t-160.5 -59.5t-99.5 -145.5z" />
<glyph unicode="'" horiz-adv-x="286" d="M88 1290l45 254h82l-86 -254h-41z" />
<glyph unicode="(" horiz-adv-x="534" d="M89 255q-7 105 6.5 223t47.5 239q31 119 79 237.5t110.5 223t136.5 191.5t160 147l37 -62q-76 -53 -142.5 -132t-124 -176t-102.5 -207t-72 -222q-31 -113 -45 -222.5t-8 -207t30.5 -177t73.5 -130.5l-69 -62q-53 57 -82 144.5t-36 192.5z" />
<glyph unicode=")" horiz-adv-x="534" d="M-131 -20q72 51 138.5 130.5t123.5 177t102.5 207t75.5 222.5q27 113 41.5 222.5t8 206.5t-32 176t-72.5 132l70 62q53 -59 81.5 -146.5t36 -192t-6 -223t-44.5 -237.5q-35 -121 -83 -239t-110.5 -223t-135 -192.5t-156.5 -144.5z" />
<glyph unicode="*" horiz-adv-x="610" d="M105.5 1293.5q0.5 17.5 13 36t28 30.5t27.5 4l113 -72l12 148q0 16 18.5 24.5t37 8.5t31.5 -8.5t7 -24.5l-67 -148l151 70q16 8 25.5 -4t10.5 -29.5t-5 -34t-25 -18.5l-153 -21l80 -104q10 -12 -2.5 -27.5t-31 -26t-34.5 -13.5t-20 12l-29 135l-103 -133 q-10 -16 -27.5 -13.5t-29.5 13t-15 26t11 27.5l137 104l-145 19q-16 2 -15.5 19.5z" />
<glyph unicode="+" horiz-adv-x="1024" d="M172 614l21 82h286l76 287h82l-76 -287h287l-21 -82h-286l-76 -286h-82l76 286h-287z" />
<glyph unicode="," horiz-adv-x="348" d="M59 -164q49 61 68.5 107.5t-0.5 83.5q-8 16 -4 36.5t16.5 38t31.5 29.5t42 12q29 0 44 -21.5t9 -49.5q-12 -43 -32.5 -80t-43 -65.5t-46 -52.5t-44.5 -38h-41z" />
<glyph unicode="-" horiz-adv-x="798" d="M131 532l21 82h512l-21 -82h-512z" />
<glyph unicode="." horiz-adv-x="348" d="M102 72q6 29 34 50t57 21t44 -21.5t9 -49.5q-10 -29 -38 -50.5t-56 -21.5q-29 0 -44.5 21.5t-5.5 50.5z" />
<glyph unicode="/" horiz-adv-x="550" d="M-125 0l717 1434h84l-719 -1434h-82z" />
<glyph unicode="0" horiz-adv-x="1044" d="M10 249q-10 79 13 171l155 594q25 92 79 171t126 136t158 90t172 33t153.5 -33t110.5 -90t54 -136t-13 -171l-156 -594q-25 -92 -79 -171t-125.5 -136.5t-157.5 -90t-172 -32.5t-154 32.5t-111 90t-53 136.5zM93 279.5q9 -64.5 43 -110.5t89.5 -71.5t124.5 -25.5 q70 0 137.5 25.5t126 71.5t102.5 110.5t64 140.5l156 594q20 76 11 140.5t-43 110.5t-89 71.5t-125 25.5t-137.5 -25.5t-125.5 -71.5t-102 -110.5t-65 -140.5l-156 -594q-20 -76 -11 -140.5z" />
<glyph unicode="1" horiz-adv-x="491" d="M76 0l356 1352h-123l21 82h205l-377 -1434h-82z" />
<glyph unicode="2" horiz-adv-x="917" d="M-86 0q35 135 96.5 239.5t138 188.5t160.5 150.5t168 128.5q61 45 118.5 92t105 95t81 98t47.5 104q14 53 10.5 101t-30.5 85t-74 58.5t-117 21.5q-86 0 -165.5 -38t-143.5 -101l-57 45q78 80 180.5 128t206.5 48q90 0 151.5 -29t94.5 -77t38.5 -110t-12.5 -132 q-16 -68 -56 -128.5t-92 -115.5t-115.5 -106.5t-131.5 -100.5h2q-72 -53 -143.5 -109.5t-139 -124t-124 -148.5t-95.5 -181h625l-20 -82h-707z" />
<glyph unicode="3" horiz-adv-x="944" d="M-61 162l75 47q29 -63 89.5 -100t146.5 -37q70 0 137.5 25.5t125.5 71.5t102 110.5t65 140.5q16 63 4 120.5t-46 101.5t-89 69.5t-125 25.5l22 82h11q53 0 106 21.5t97.5 57.5t76 82t43.5 95q18 63 11 116.5t-33.5 91.5t-69.5 58.5t-98 20.5q-86 0 -165 -38t-144 -101 l-56 45q78 80 180.5 128t206.5 48q72 0 127.5 -27.5t90 -77t44 -117t-11.5 -147.5q-25 -92 -94.5 -169t-212.5 -124q150 -49 194 -146t13 -216q-25 -92 -79 -171t-126 -136.5t-158 -90t-172 -32.5q-104 0 -180 47t-108 125z" />
<glyph unicode="4" horiz-adv-x="901" d="M31 451l22 81l475 902h86l-477 -902h346l86 328h82l-86 -328h205l-22 -81h-205l-119 -451h-82l119 451h-430z" />
<glyph unicode="5" horiz-adv-x="944" d="M-61 162l75 47q31 -63 90.5 -100t145.5 -37q70 0 138.5 25.5t126.5 71.5t102.5 110.5t62.5 140.5l33 121q18 76 9 140t-43 110.5t-88 72t-124 25.5q-49 0 -97 -13.5t-91 -35.5h-82l155 594h615l-21 -82h-532l-113 -420q92 39 188 39q86 0 154 -33t110 -90t54 -136 t-12 -171l-33 -121q-25 -92 -78 -171t-126 -136.5t-158 -90t-171 -32.5q-104 0 -180 47t-110 125z" />
<glyph unicode="6" horiz-adv-x="1044" d="M10 249q-10 79 13 171l30 121q43 160 106.5 315.5t164 281.5t243 209t340.5 97l-22 -82q-127 0 -227.5 -42t-180.5 -113.5t-139 -170t-107 -211.5q76 66 166.5 106t188.5 40q86 0 155.5 -33t111.5 -90t53.5 -136t-13.5 -171l-31 -121q-25 -92 -79 -171t-125.5 -136.5 t-157.5 -90t-172 -32.5t-154 32.5t-111 90t-53 136.5zM93 279.5q9 -64.5 43 -110.5t89.5 -71.5t124.5 -25.5q70 0 137.5 25.5t126 71.5t102.5 110.5t64 140.5l31 121q20 76 11 140t-43 110.5t-89 72t-125 25.5q-68 0 -133 -23.5t-122.5 -66.5t-100.5 -102.5t-68 -131.5 l-37 -145q-20 -76 -11 -140.5z" />
<glyph unicode="7" horiz-adv-x="897" d="M14 0q31 129 86.5 247t122 214t138 176t141.5 158q53 59 109.5 119.5t105.5 127t93 143.5t81 167h-623l21 82h712q-37 -119 -86 -215.5t-106 -177t-120.5 -151.5t-129.5 -140q-68 -74 -136.5 -151t-131 -168t-114.5 -201.5t-81 -229.5h-82z" />
<glyph unicode="8" horiz-adv-x="1044" d="M10 249q-10 79 13 171q31 119 125 216t217 146q-66 47 -94.5 124t-4.5 169q20 80 66.5 147.5t106 117t131 77t143.5 27.5t127 -27.5t90 -77t44 -117t-11 -147.5q-25 -92 -94.5 -169t-161.5 -124q98 -49 142 -146t13 -216q-25 -92 -79 -171t-125.5 -136.5t-157.5 -90 t-172 -32.5t-154 32.5t-111 90t-53 136.5zM93 279.5q9 -64.5 43 -110.5t89.5 -71.5t124.5 -25.5q70 0 137.5 25.5t126 71.5t102.5 110.5t64 140.5q14 61 4 117.5t-43.5 99.5t-88 70.5t-128.5 29.5q-70 0 -137.5 -25.5t-125.5 -69.5t-99 -101.5t-58 -120.5 q-20 -76 -11 -140.5zM344 978q8 -46 36 -82t70 -56.5t97 -20.5q57 0 111.5 21.5t99.5 57.5t77.5 82t45.5 95q18 63 11 116.5t-34 91.5t-70 58.5t-98 20.5t-108.5 -20.5t-100.5 -58.5t-80.5 -91t-52.5 -117q-12 -51 -4 -97z" />
<glyph unicode="9" horiz-adv-x="1044" d="M133 -10l23 82q121 0 221 42t182 118.5t147.5 183t116.5 235.5l-2 -2q-78 -66 -169 -105.5t-189 -39.5q-86 0 -153.5 32.5t-109.5 90t-54.5 136.5t12.5 171l20 80q25 92 79 171t126 136t158 90t172 33t153.5 -33t110.5 -90t54 -136t-13 -171l-19 -76 q-55 -199 -128.5 -372t-178 -301t-244 -201.5t-315.5 -73.5zM231 793.5q9 -64.5 42.5 -110.5t87.5 -71.5t124 -25.5q68 0 133.5 23.5t124 66.5t101.5 102.5t65 130.5l27 105q20 76 11 140.5t-43 110.5t-89 71.5t-125 25.5t-137.5 -25.5t-125.5 -71.5t-102 -110.5t-65 -140.5 l-20 -80q-18 -76 -9 -140.5z" />
<glyph unicode=":" horiz-adv-x="348" d="M16 72q8 29 35 50t55 21q29 0 45.5 -21.5t8.5 -49.5q-6 -29 -34 -50.5t-56 -21.5q-29 0 -44.5 21.5t-9.5 50.5zM184 707q6 29 34 50t56 21q29 0 44.5 -21.5t9.5 -49.5q-8 -29 -35 -50.5t-55 -21.5q-29 0 -45.5 21.5t-8.5 50.5z" />
<glyph unicode=";" horiz-adv-x="348" d="M-23 -164q45 61 64.5 107.5t1.5 83.5q-8 16 -5 36.5t15.5 38t32.5 29.5t43 12q29 0 45 -21.5t6 -49.5q-8 -43 -30.5 -80t-45 -65.5t-46 -52.5t-42.5 -38h-39zM207 707q6 29 33.5 50t56.5 21t44 -21.5t9 -49.5q-10 -29 -36.5 -50.5t-55.5 -21.5t-45 21.5t-6 50.5z" />
<glyph unicode="&#x3c;" horiz-adv-x="815" d="M127 608l29 94l608 308l-25 -95l-516 -260l377 -260l-25 -94z" />
<glyph unicode="=" horiz-adv-x="1024" d="M139 492l21 81h655l-20 -81h-656zM205 737l20 82h656l-21 -82h-655z" />
<glyph unicode="&#x3e;" horiz-adv-x="815" d="M47 301l25 94l520 260l-381 260l25 95l448 -308l-29 -94z" />
<glyph unicode="?" horiz-adv-x="770" d="M117 72q6 29 33.5 50t56.5 21t44 -21.5t9 -49.5q-10 -29 -36.5 -50.5t-55.5 -21.5t-45 21.5t-6 50.5zM162 1268q78 80 180 128t207 48q72 0 128 -27.5t90 -77t44 -117t-10 -147.5q-16 -61 -43 -110.5t-59.5 -91.5t-70.5 -80.5t-77 -81.5q-41 -41 -82 -84t-81 -92.5 t-69.5 -104.5t-48.5 -123h-41q39 150 110 254.5t157 194.5q39 37 71.5 71.5t62 71.5t51 80t38.5 96q14 63 9 116.5t-32.5 91.5t-69.5 58.5t-98 20.5q-86 0 -165.5 -38t-143.5 -101z" />
<glyph unicode="@" horiz-adv-x="1017" d="M71.5 149.5q-12.5 79.5 10.5 167.5l149 574q43 152 150.5 234.5t243.5 82.5h82q135 0 199.5 -83t21.5 -234l-129 -492q-14 -57 -47 -107t-80 -88t-100.5 -59.5t-110.5 -21.5t-100.5 21.5t-68 59.5t-32.5 88t6 107l56 213q18 53 54 102.5t81 86.5t98 58.5t107 21.5 q53 0 96 -19l-21 -84q-47 20 -98 21q-76 0 -141.5 -52.5t-94.5 -136.5l-55 -211q-20 -88 17.5 -141t115.5 -53t146.5 53t89.5 141l129 492q31 113 -16.5 174t-145.5 61h-82q-98 0 -178 -61t-111 -174l-149 -574q-23 -82 -11.5 -145t46 -110.5t91 -75t128.5 -27.5t141.5 27.5 t128.5 74.5l41 -57q-74 -59 -159 -93t-175 -34q-88 0 -157.5 36t-111.5 96.5t-54.5 140z" />
<glyph unicode="A" horiz-adv-x="925" d="M-152 0l269 551q25 37 60.5 65.5t84.5 30.5h324q39 4 41 28.5t4 78.5q0 78 1 157.5t1 171.5v254l-342 -628q-12 0 -19 -2q-23 -4 -52.5 -17.5t-47.5 -30.5q-2 -2 -4 -3t2 6q4 8 25.5 44.5t72.5 125t135 238t211 384.5h103v-440v-104.5t-2 -92.5q0 -33 1 -67v-5 q0 -31 -11 -65q-10 -43 -43 -74q-16 -16 -36 -25.5t-40 -13.5q-10 -2 -17.5 -2h-13.5h-322q-12 0 -23 -11t-17 -24l-261 -530h-84zM610 0l4 528q29 6 54.5 35t40.5 64l-15 -627h-84z" />
<glyph unicode="B" horiz-adv-x="1064" d="M-49 0l145 565l47 176q10 47 49 73t87 28h311q51 0 103 20.5t96.5 55t76 77.5t43.5 90q11 41 11 77q0 16 -2 32q-7 50 -32.5 84.5t-67.5 54t-93 19.5h-338l-121 -455q-31 0 -58.5 -22.5t-43.5 -53.5l162 613h419q70 0 125.5 -26t89.5 -72q32 -46 42 -110q3 -20 3 -42 q0 -47 -14 -99q-10 -43 -31.5 -83.5t-56.5 -77.5t-88 -67.5t-127 -53.5q80 -25 128 -64t72.5 -88t25.5 -105v-8q0 -53 -13 -108q-25 -92 -78 -171t-125.5 -136t-157.5 -90t-171 -33h-418zM51 82h338q70 0 138.5 25.5t127 71.5t101.5 110.5t63 140.5q9 37 9 73q0 25 -4 49 q-11 60 -45 106.5t-88 74t-124 27.5l-135 2h-182q-14 0 -17.5 -3t-7.5 -7l-45 -185z" />
<glyph unicode="C" horiz-adv-x="976" d="M40 247q-3 24 -3 50q0 57 16 123l156 594q25 96 79 173t125.5 134t157.5 90t172 33t154 -33t97.5 -75t43.5 -70l-82 -43q-10 20 -33.5 53t-77.5 59.5t-124 26.5t-138.5 -26.5t-126 -72.5t-100.5 -107.5t-65 -141.5l-156 -594q-16 -55 -15 -101q0 -21 2 -41 q10 -62 45.5 -107.5t89.5 -72t124 -26.5t138.5 26.5t108.5 59t62 53.5l58 -43q-27 -29 -79.5 -71t-138.5 -74.5t-172 -32.5t-153.5 32.5t-110.5 90t-54 134.5z" />
<glyph unicode="D" horiz-adv-x="1116" d="M-45 0l367 1397q10 -29 16 -62q12 -55 12 -139l-278 -1057q-18 -33 -60 -80q-10 -14 -24.5 -28.5t-32.5 -30.5zM57 0q18 23 35 42t29 40h272q70 0 138.5 25.5t127 71.5t101.5 110.5t63 140.5l152 574q13 51 13 96q0 23 -3 44q-10 64 -44 110t-88 72t-124 26h-303 q-4 25 -10 45t-13 37h347q86 0 154.5 -33t110.5 -91t54 -136q4 -26 4 -53q0 -55 -16 -117l-152 -574q-25 -92 -78 -171t-125.5 -136t-157.5 -90t-171 -33h-316z" />
<glyph unicode="E" horiz-adv-x="921" d="M-49 0l182 696q2 12 7 24.5t12 22.5q31 53 92 79t121 26h303l-23 -82q-115 0 -179.5 1t-96 1h-42h-16.5q-25 -4 -55.5 -18.5t-40.5 -53.5l-164 -614h615l-21 -82h-694zM152 774l174 660h696l-21 -82h-614l-123 -467l-16 -6q-23 -12 -44.5 -32t-37.5 -44q-4 -8 -7 -13.5 t-7 -15.5z" />
<glyph unicode="F" horiz-adv-x="880" d="M-49 0l182 696q2 12 7 24.5t12 22.5q31 53 92 79t121 26h303l-23 -82q-115 0 -179.5 1t-96 1h-42h-16.5q-25 -4 -55.5 -18.5t-40.5 -53.5l-182 -696h-82zM154 776l172 658h696l-21 -82h-614l-123 -467l-16 -6q-23 -12 -44.5 -32t-37.5 -44q-4 -8 -7 -13.5t-5 -13.5z" />
<glyph unicode="G" d="M43 263q-4 26 -4 54q0 56 16 117l156 594q25 92 79 171t125.5 136.5t157.5 90t172 32.5q104 0 179 -48t116 -130l-82 -43q-51 78 -108 108.5t-127 30.5t-138.5 -25.5t-126 -71.5t-101.5 -110.5t-64 -140.5l-156 -594q-14 -54 -14 -101q0 -21 3 -41q9 -63 43 -109 t89 -71.5t125 -25.5t138.5 25.5t126 71.5t101.5 109.5t64 141.5l74 277q6 29 -14.5 45t-49.5 20q-4 0 -12 1t-40 1t-98.5 -1t-183.5 -3l21 82q119 2 185.5 3t100 1t44 -1t16.5 -1q27 -6 50.5 -16.5t40 -28.5t23.5 -44t-1 -58l-74 -277q-25 -92 -79 -171t-126 -136t-158 -90 t-172 -33t-153.5 33t-109.5 90t-54 136z" />
<glyph unicode="H" horiz-adv-x="1126" d="M-33 2l172 666q10 35 35 66.5t70 53.5q29 16 60.5 21.5t68.5 7.5h434q35 0 72 12q39 14 55 56l143 545h82l-143 -545q-20 -76 -101 -121q-29 -16 -62.5 -21.5t-70.5 -7.5h-434q-33 0 -72 -12q-39 -14 -55 -55l-174 -666h-80zM162 768l180 662h82l-154 -576l-12 -6 q-33 -14 -53.5 -30.5t-42.5 -49.5zM700 2l185 698l14 7q31 14 53.5 30.5t44.5 48.5l-215 -784h-82z" />
<glyph unicode="I" horiz-adv-x="368" d="M-45 0l375 1434h82l-377 -1434h-80z" />
<glyph unicode="J" horiz-adv-x="485" d="M-262 20l22 82q70 0 136.5 26t124 72t100.5 110.5t65 140.5l258 983h82l-258 -983q-25 -92 -79 -171t-125.5 -136.5t-155.5 -90.5t-170 -33z" />
<glyph unicode="K" horiz-adv-x="995" d="M-43 0l152 584q10 35 28.5 65.5t36.5 59.5q39 51 82 89t90 72l690 564h111l-752 -613l383 -821h-102l-354 762q-4 -4 -10.5 -11.5t-16.5 -13.5q-35 -35 -64.5 -72.5t-40.5 -80.5l-153 -584h-80zM154 748l172 686h86l-150 -570q-20 -10 -28.5 -15t-16.5 -11 q-20 -16 -32.5 -35t-30.5 -55z" />
<glyph unicode="L" horiz-adv-x="880" d="M-6 84q-4 14 -4 28q0 18 6 38l65 260h-2l271 1024h88l-340 -1284q-4 -23 2 -35.5t22 -20.5q16 -6 30.5 -9t33.5 -3h448l-20 -82h-447q-37 2 -66.5 7t-49.5 22q-29 23 -37 55z" />
<glyph unicode="M" horiz-adv-x="1310" d="M-55 4l327 1249q6 23 12.5 49.5t18.5 52t30.5 45t49.5 30.5q6 1 12 1q29 1 49 -17q24 -20 40 -53.5t25 -73.5t15 -73q27 -152 45.5 -301t65.5 -282q98 111 189 233.5t180 241.5q25 33 58.5 78t69 90t69.5 82t59 55q42 32 66 32q4 0 8 -1q24 -6 32 -35q5 -18 5 -39 q0 -14 -2 -29q-5 -39 -13 -69q-4 -10 -7 -23.5t-11.5 -47.5l-24.5 -98t-45 -177q-41 -152 -85 -313.5t-81 -297.5q-43 -158 -84 -309h-82v2l4 4l21 82q10 41 27.5 98.5t35.5 124.5q18 68 37.5 144t41 153.5t42 157.5t41.5 154q25 98 45 175t35 138q6 25 11 49.5t11 52.5 q-37 -37 -66.5 -71.5t-65.5 -80.5t-82 -108.5t-113 -154.5q-35 -45 -67 -88t-65 -82q-10 -16 -33.5 -45t-49 -58.5t-50 -54.5t-37.5 -33q-16 -10 -36.5 -15t-32.5 3q-20 12 -35.5 43t-27 69.5t-19.5 80.5t-14 77q-14 102 -25.5 205.5t-40.5 202.5q-10 31 -19.5 57.5 t-25.5 54.5q-6 -12 -11 -26.5t-16.5 -54t-32 -119.5t-58.5 -224.5t-96 -365.5t-144 -547h-80z" />
<glyph unicode="N" horiz-adv-x="1064" d="M-41 4l344 1313q4 16 14.5 37.5t25.5 40t33.5 32t41.5 13.5q45 0 57 -41q10 -39 17.5 -78t13.5 -82q6 -55 21.5 -150.5t35 -208t41 -233.5t42 -225.5t36.5 -181t25 -105.5q0 -4 2 -9t4 -9q23 61 54.5 171.5t68 243t73.5 275.5t71 269t59.5 222.5t37.5 137.5v2h78 q-86 -324 -172 -642.5t-172 -641.5q-4 -16 -12 -41t-22.5 -48.5t-33 -41t-45.5 -17.5q-18 0 -33.5 19.5t-27.5 49t-20.5 62.5t-12.5 58q-10 66 -32.5 183.5t-50 258.5t-55.5 290.5t-46 280.5q-4 35 -10.5 68t-10.5 67q-10 -8 -16 -34l-344 -1305h-80z" />
<glyph unicode="O" d="M40 249q-3 25 -3 51q0 57 16 120l156 594q25 92 79 171t125.5 136t157.5 90t172 33t154 -33t111 -90t54 -136q3 -25 4 -51q0 -57 -17 -120l-156 -594q-25 -92 -79 -171t-126 -136.5t-158 -90t-172 -32.5t-153.5 32.5t-110.5 90t-54 136.5zM124 280q9 -64 43 -110.5 t89 -72t125 -25.5t137.5 25.5t125.5 71.5t102.5 110.5t64.5 140.5l156 594q14 52 14 99q0 21 -3 41q-9 64 -43 110.5t-89 72t-125 25.5t-137.5 -25.5t-126 -71.5t-102.5 -110.5t-64 -140.5l-156 -594q-14 -52 -13 -99q-1 -21 2 -41z" />
<glyph unicode="P" horiz-adv-x="1003" d="M-49 0l178 684q4 14 10 29.5t19 29.5q31 41 77 64.5t99 30.5l262 2l37 2q51 0 103 21.5t96.5 55t76 77.5t43.5 91q11 41 11 77q0 16 -2 32q-7 50 -32.5 84.5t-67.5 54t-93 19.5h-379l-123 -471q-12 -8 -24.5 -14.5t-26.5 -16.5q-23 -16 -43 -43q-4 -6 -7 -12t-7 -15 q-2 -2 -2 -4l172 658h460q70 0 125.5 -26t89 -72t43.5 -110q3 -20 2 -42q0 -47 -14 -99q-16 -63 -58 -121.5t-100.5 -104.5t-127 -73.5t-138.5 -27.5l-295 -4q-16 0 -37.5 -8.5t-37.5 -20.5q-23 -16 -29 -43l-180 -684h-80z" />
<glyph unicode="Q" d="M66 249q-5 26 -5 54q0 56 17 117l155 594q25 92 79.5 171t127 136t157.5 90t171 33t154.5 -33t110.5 -90t53 -136q4 -25 4 -51q0 -57 -17 -120l-155 -594q-25 -92 -78.5 -171t-124.5 -136q-57 -45 -119 -74q-2 -15 -2 -29q0 -97 108 -133l-43 -80q-149 43 -149 192v17 q-63 -16 -125 -16q-86 0 -154.5 32.5t-110.5 90t-54 136.5zM151 280q9 -65 42.5 -111t88 -71.5t124.5 -25.5q51 0 102 14q-2 27 -14 45q-23 39 -88 59l43 80q80 -23 116 -80q23 -31 29 -71q39 20 76 49q59 47 103 111.5t63 140.5l155 594q16 52 16 99q0 21 -3 41 q-11 65 -44.5 111t-89 71.5t-125.5 25.5t-137 -25.5t-125.5 -71.5t-101.5 -110.5t-66 -140.5l-155 -594q-12 -51 -12 -96q0 -23 3 -44z" />
<glyph unicode="R" horiz-adv-x="1015" d="M-49 0l178 684q4 14 10 29.5t19 29.5q31 41 77 64.5t99 30.5l262 2l37 2q51 0 103 21.5t96.5 55t76 77.5t43.5 91q11 41 11 77q0 16 -2 32q-7 50 -32.5 84.5t-67.5 54t-93 19.5h-379l-123 -471q-12 -8 -24.5 -14.5t-26.5 -16.5q-23 -16 -43 -43q-4 -6 -7 -12t-7 -15 q-2 -2 -2 -4l172 658h460q70 0 125.5 -26t89 -72t43.5 -110q3 -20 2 -42q0 -47 -14 -99q-16 -63 -58 -121.5t-100.5 -104.5t-127 -73.5t-138.5 -27.5l-194 -4l348 -756h-100l-349 756q-16 0 -37.5 -8.5t-37.5 -20.5q-23 -16 -29 -43l-180 -684h-80z" />
<glyph unicode="S" horiz-adv-x="1003" d="M-10 247q-3 26 -3 52q0 53 13 111h80q-12 -45 -11 -86q0 -24 3 -46q10 -62 45 -107.5t89 -72t124 -26.5t137.5 25.5t125.5 71.5t102.5 110.5t64.5 140.5q9 35 9 66q0 26 -6 50q-13 52 -49 92t-89.5 67.5t-120.5 41.5q-68 14 -123 43t-91 72q-36 44 -48 100q-5 24 -6 49 q0 35 10 74q20 80 66 147.5t105.5 117t131.5 77t143 27.5q104 0 180 -48t113 -128l-80 -45q-29 63 -89 101t-146 38q-55 0 -108.5 -20.5t-100.5 -58.5t-81 -91t-52 -117q-6 -26 -6 -49t6 -44q12 -42 41.5 -75t74.5 -54.5t99 -31.5q82 -14 146.5 -49t105.5 -87 q41 -53 54 -119q5 -26 5 -54q0 -44 -12 -92q-25 -92 -79 -171t-126 -136.5t-158 -90t-172 -32.5t-153.5 32.5t-110.5 90t-53 134.5z" />
<glyph unicode="T" horiz-adv-x="1087" d="M242 1354l20 82h414q35 0 60.5 -19.5t33.5 -54.5q2 -16 2 -33.5t-6 -44.5l-342 -1290h-82l342 1290q4 23 1 43.5t-30 26.5h-413zM758 1436h459l-21 -82h-391h20q1 8 1 15q0 35 -18 47q-20 16 -50 20z" />
<glyph unicode="U" d="M41 249q-4 26 -4 54q0 56 16 117l269 1014h81l-268 -1014q-12 -51 -12 -96q0 -22 3 -44q9 -64 43 -110.5t88 -72t124 -25.5t138.5 25.5t127 71.5t102.5 110.5t62 140.5l268 1014h82l-268 -1014q-25 -92 -78 -171t-126 -136.5t-158 -90t-171 -32.5t-154.5 32.5t-110.5 90 t-54 136.5z" />
<glyph unicode="V" horiz-adv-x="925" d="M211 150.5q0 44.5 1 128t4 231t7 374t8 556.5h82q-2 -330 -4 -556.5t-4 -371.5t-3 -225t-1 -119v-50.5t2 -21.5q184 330 348 668t338 676h84q-166 -326 -323.5 -653.5t-339.5 -657.5q-14 -29 -37 -61.5t-58 -53.5q-10 -4 -25.5 -9t-37.5 5q-23 10 -29 35q-6 20 -9 40.5 t-3 65z" />
<glyph unicode="W" horiz-adv-x="1384" d="M127 57l115 1377h84l-107 -1276q-2 -23 5 -23t18 23l544 1218q10 23 35 40.5t49 17.5h17q23 0 40 -17.5t15 -40.5l-98 -1216q-4 -23 3 -23t19 23l582 1272h86l-631 -1375q-10 -23 -35.5 -40t-48.5 -17h-16q-25 0 -41.5 17.5t-13.5 39.5l100 1217q4 23 -3 22.5t-20 -22.5 l-542 -1217q-10 -23 -36 -40t-48 -17h-17q-25 0 -41 17.5t-14 39.5z" />
<glyph unicode="X" horiz-adv-x="847" d="M-141 0l460 657l5 2q2 4 12 14.5t24.5 21t33 18.5t38.5 8q16 -2 35 -13.5t29 -50.5q6 -23 18 -78t28.5 -125.5t33 -147.5t31 -142.5t24.5 -110.5t12 -53h-90q-8 31 -19.5 83t-24.5 114.5t-27.5 129t-28 125t-23.5 103.5t-16 63q-2 10 -4 13.5t-4 5.5q-4 -2 -10.5 -7 t-14.5 -12l-436 -618h-86zM233 1432h93q10 -45 30.5 -128t41 -170t39 -160t24.5 -100q2 -8 8 -14l8 8t8 9l414 557h88l-438 -598l-4 -2q-6 -6 -35 -31t-66 -25h-2q-16 0 -34.5 11.5t-28.5 46.5q-6 20 -18.5 69t-28 112.5t-32.5 132.5t-30.5 128t-23.5 101t-13 53z" />
<glyph unicode="Y" horiz-adv-x="839" d="M197 0l184 702q18 -20 37 -20q16 0 45 20l-184 -702h-82zM233 1432h93l20 -82.5t25.5 -106.5t28 -117.5t27.5 -112.5t24.5 -93t17.5 -60q2 0 5 4t15.5 21.5t39 52.5t74.5 98.5t120 159.5t176 238h88l-438 -598q-10 -8 -39 -33t-68 -25q-16 0 -34.5 11.5t-28.5 46.5 q-6 20 -18.5 69t-28 112.5t-32.5 132.5t-30.5 128t-23.5 101t-13 53z" />
<glyph unicode="Z" horiz-adv-x="901" d="M-73 17.5q-7 15.5 10 37.5l886 1245q16 23 10 38.5t-30 15.5h-455l21 82h581q25 0 32 -15.5t-9 -38.5l-887 -1245q-16 -23 -10 -38t30 -15h498l-20 -82h-627q-23 0 -30 15.5z" />
<glyph unicode="[" horiz-adv-x="471" d="M-68 -82l420 1598h226l-23 -82h-143l-377 -1434h143l-22 -82h-224z" />
<glyph unicode="\" horiz-adv-x="548" d="M215 0l33 1434h84l-35 -1434h-82z" />
<glyph unicode="]" horiz-adv-x="471" d="M-106 -82l22 82h139l377 1434h-143l22 82h226l-422 -1598h-221z" />
<glyph unicode="^" horiz-adv-x="688" d="M-8 926l375 528h90l98 -528h-86q-20 109 -43 215t-39 215l-309 -430h-86z" />
<glyph unicode="_" horiz-adv-x="1310" d="M131 -164l21 82h1024l-21 -82h-1024z" />
<glyph unicode="`" horiz-adv-x="542" d="M215 1454h94l15 -246h-66z" />
<glyph unicode="a" horiz-adv-x="823" d="M22 180q-3 20 -4 40q0 41 13 87q14 59 53 111.5t91 91.5t113.5 61.5t125.5 22.5q78 0 135 -35l-25 -90q-23 20 -56.5 31.5t-74.5 11.5q-98 0 -177 -56.5t-103 -148.5q-12 -44 -12 -80q0 -56 29 -93q48 -62 146 -62q104 0 180 62.5t107 172.5l107 410q13 46 13 83 q1 55 -27 91q-46 61 -150 61q-117 0 -211 -90l-55 39q53 61 133 97t155 36q66 0 117 -22.5t80 -64.5q29 -43 37 -101q2 -18 3 -37q0 -43 -13 -92l-185 -701q-8 6 -12 13q-25 31 -27 80q-55 -53 -126.5 -86t-147.5 -33q-63 0 -112.5 23.5t-79.5 66t-40 100.5z" />
<glyph unicode="b" horiz-adv-x="829" d="M6 180q-3 20 -3 40q0 41 11 87l297 1127h82l-297 -1127q-12 -44 -13 -80q-1 -55 29 -93q48 -62 146 -62q104 0 181 62.5t108 172.5l104 400q12 44 12 81q0 56 -29 93q-48 61 -147 61q-41 0 -80.5 -11t-70.5 -32l20 90q76 35 154 35q63 0 113.5 -22.5t80.5 -64.5 q28 -43 38 -101q3 -20 4 -40q0 -42 -13 -89l-104 -400q-18 -70 -57.5 -128t-91.5 -100t-114.5 -65.5t-127.5 -23.5q-63 0 -112.5 23.5t-80.5 66t-39 100.5z" />
<glyph unicode="c" horiz-adv-x="737" d="M26 180q-3 18 -2 37q0 43 13 90l106 410q18 72 57.5 130t92.5 100t114.5 64.5t127.5 22.5q74 0 133 -33.5t84 -99.5l-76 -39q-6 23 -21.5 40.5t-38 28.5t-51 16t-53.5 5q-104 0 -180 -61.5t-107 -173.5l-106 -410q-13 -45 -13 -82q0 -54 27 -91q45 -62 150 -62 q53 0 109.5 21.5t96.5 68.5l56 -43q-57 -57 -133 -93t-152 -36q-66 0 -116 23.5t-80 66t-38 100.5z" />
<glyph unicode="d" horiz-adv-x="870" d="M-24 180q-3 18 -3 37q0 43 13 90l102 400q18 72 58 130t94.5 100t115 64.5t123.5 22.5q78 0 133 -35l-20 -90q-27 20 -60.5 31.5t-74.5 11.5q-98 0 -177 -61.5t-110 -173.5l-104 -400q-13 -46 -13 -83q0 -53 26 -90q44 -62 148 -62q92 0 173 59t114 166l299 1137h82 l-373 -1418q-10 6 -14 13q-25 31 -25 82q-59 -55 -130.5 -88t-145.5 -33q-66 0 -116 23.5t-78.5 66t-36.5 100.5z" />
<glyph unicode="e" horiz-adv-x="792" d="M26 176q-2 17 -3 35q0 45 14 96l106 410q18 70 57.5 128t91.5 100t114.5 65.5t128.5 23.5q63 0 112 -23.5t80 -65.5q31 -43 40 -101q3 -20 3 -40q0 -41 -12 -87q-14 -59 -53 -111.5t-91.5 -91.5t-114 -61.5t-124.5 -22.5h-144l25 82h143q98 0 177 61.5t104 153.5 q11 41 11 75q1 57 -31 93q-50 57 -148 57q-104 0 -179 -57t-104 -168l-110 -420q-13 -46 -13 -84q0 -54 27 -90q45 -61 150 -61q115 0 209 90l55 -43q-57 -59 -134 -94t-153 -35q-66 0 -117 22.5t-80 63t-37 100.5z" />
<glyph unicode="f" horiz-adv-x="471" d="M-45 0l231 887q10 39 17.5 71.5t17.5 61.5q20 61 51 131t88 133q27 33 56.5 57.5t58.5 40.5q74 49 158 62q16 4 26.5 4h16.5h6l-25 -82h-2q-51 0 -102 -25q-35 -18 -68.5 -40.5t-64.5 -59.5q-31 -35 -52.5 -74t-37.5 -84q-8 -25 -12.5 -36t-1.5 -15t13.5 -3t28.5 1h181 l-23 -82h-188q-10 0 -22.5 -5t-20.5 -19q-2 -2 -4 -9.5t-10.5 -34t-24 -83t-43 -157.5t-68.5 -258t-100 -382h-80zM72 950l22 82h92l-22 -82h-92z" />
<glyph unicode="g" horiz-adv-x="849" d="M-30 -344q-4 21 -4 44q0 36 11 75h80q-10 -36 -10 -67q0 -54 31 -95q47 -64 145 -64q104 0 181 62.5t106 173.5q9 33 9 62q0 52 -29 91q-44 62 -148 62l20 82q66 0 116 -24.5t81 -65.5t39 -94q3 -20 3 -40q0 -35 -9 -73q-18 -70 -57 -128t-91.5 -100t-115 -65.5 t-127.5 -23.5q-63 0 -112.5 24.5t-78 66.5t-40.5 97zM150 354q-3 18 -3 37q0 42 13 90l63 236q18 72 57 130t91.5 100t115 64.5t127.5 22.5q72 0 126.5 -31.5t84.5 -84.5q27 53 69 79.5t107 26.5l-22 -82q-33 0 -53.5 -16.5t-36 -45t-26.5 -70.5t-25 -93l-64 -236 q-18 -70 -58 -128t-92.5 -100t-114 -65.5t-124.5 -23.5q-66 0 -116 23.5t-80.5 65.5t-38.5 101zM242 481q-10 -43 -10 -78q0 -57 26 -95q43 -62 148 -62q98 0 179 62.5t107 172.5l64 236q11 43 11 78q0 58 -29 96q-48 61 -146 61q-104 0 -181 -61.5t-106 -173.5z" />
<glyph unicode="h" horiz-adv-x="849" d="M-63 0l200 776q102 154 205.5 206t169.5 52t116 -22.5t80 -64.5q32 -43 40 -101q3 -18 2 -37q0 -43 -13 -92l-190 -717h-82l190 717q10 44 10 79q0 57 -26 95q-43 61 -147 61q-98 0 -179.5 -61.5t-107.5 -173.5l-191 -717h-77zM158 870l139 564h86l-117 -447 q-18 -10 -28.5 -15t-18.5 -11q-18 -16 -30.5 -35t-30.5 -56z" />
<glyph unicode="i" horiz-adv-x="348" d="M-39 0l266 1024h82l-268 -1024h-80zM281 1260q4 23 22.5 37t40.5 14q23 0 33 -14.5t6 -36.5q-6 -23 -24.5 -37.5t-41.5 -14.5t-32.5 14.5t-3.5 37.5z" />
<glyph unicode="j" horiz-adv-x="337" d="M-346 -553l20 82q98 0 179 63.5t108 171.5l330 1260h82l-332 -1260q-20 -74 -58 -129t-89.5 -97t-114 -66.5t-125.5 -24.5zM342 1260q6 23 24.5 37t41.5 14t33 -14.5t3 -36.5q-6 -23 -23.5 -37.5t-39.5 -14.5q-23 0 -34 14.5t-5 37.5z" />
<glyph unicode="k" horiz-adv-x="817" d="M-61 0l90 358q10 35 27.5 66t37.5 59q37 51 80 89t90 73l457 373h110l-516 -422l238 -596h-102l-207 537q-6 -4 -12.5 -11.5t-14.5 -13.5q-35 -35 -64.5 -73t-41.5 -81l-95 -358h-77zM74 522l231 912h86l-209 -795q-18 -10 -28.5 -15.5t-16.5 -11.5q-20 -16 -32.5 -34.5 t-30.5 -55.5z" />
<glyph unicode="l" horiz-adv-x="368" d="M-20 77q-2 14 -3 31q-1 29 7 63l28 126l299 1137h82l-299 -1137q-16 -57 -25.5 -96t-9.5 -68t11.5 -45t44.5 -16l-21 -82q-57 0 -82.5 23.5t-31.5 63.5z" />
<glyph unicode="m" horiz-adv-x="1300" d="M-14 0l268 1024h82l-27 -109q51 45 110.5 82t125.5 37q88 0 135 -43t70 -112q59 70 129.5 112.5t156.5 42.5q66 0 113 -23.5t73 -65.5q25 -43 30 -101q1 -13 1 -25q0 -48 -14 -102l-190 -717h-82l190 717q13 51 13 92q0 48 -18 81q-34 62 -138 62q-98 0 -168 -62.5 t-98 -172.5l-191 -717h-82l191 717q13 51 13 92q0 48 -18 81q-34 62 -139 62q-98 0 -165.5 -61.5t-100.5 -165.5l-190 -725h-80z" />
<glyph unicode="n" horiz-adv-x="849" d="M-14 0l268 1024h82l-27 -109q51 45 121 82t135 37q66 0 116 -23.5t80 -65.5q30 -43 38 -101q2 -17 2 -35q0 -43 -13 -92l-190 -717h-82l191 717q11 44 11 80q0 55 -26 93q-44 62 -149 62q-98 0 -178 -62.5t-109 -172.5l-190 -717h-80z" />
<glyph unicode="o" horiz-adv-x="798" d="M26 180q-3 18 -2 37q0 43 13 90l106 410q18 72 57.5 130t92.5 100t114.5 64.5t127.5 22.5q63 0 113 -22.5t80 -64.5q30 -43 39 -101q3 -20 3 -40q0 -42 -12 -89l-107 -410q-18 -70 -58 -128t-93.5 -100t-115 -65.5t-124.5 -23.5q-66 0 -116 23.5t-80 66t-38 100.5z M119 307q-13 -45 -13 -82q0 -54 27 -91q45 -62 150 -62q98 0 177 62.5t109 172.5l107 410q12 44 12 80q0 57 -30 94q-48 61 -146 61q-104 0 -180 -61.5t-107 -173.5z" />
<glyph unicode="p" horiz-adv-x="829" d="M-82 -532l408 1556h82l-29 -109q53 45 121.5 82t134.5 37t116 -23.5t79.5 -65.5t37.5 -101q3 -18 3 -37q0 -42 -13 -90l-106 -400q-18 -72 -58.5 -131t-92.5 -100t-113.5 -63.5t-125.5 -22.5q-78 0 -135 35l25 90q23 -20 56.5 -31.5t74.5 -11.5q98 0 179 61.5t108 173.5 l106 400q12 44 12 80q0 56 -27 93q-44 62 -149 62q-98 0 -178 -62.5t-108 -172.5l-328 -1249h-80z" />
<glyph unicode="q" horiz-adv-x="829" d="M97 186q-3 20 -3 41q0 43 12 90l107 400q18 70 57 128t91.5 100t115 65.5t127.5 23.5q63 0 112.5 -23.5t80 -65.5t39.5 -101q4 -19 4 -40q0 -41 -13 -87l-329 -1249h-82l329 1249q11 42 11 78q0 57 -29 95q-47 62 -145 62q-104 0 -181 -62.5t-106 -172.5l-107 -400 q-10 -42 -10 -76q0 -59 30 -98q46 -61 144 -61q41 0 81 11t75 32l-25 -90q-74 -35 -151 -35q-63 0 -112.5 22.5t-81.5 63.5t-41 100z" />
<glyph unicode="r" horiz-adv-x="614" d="M-16 0l268 1024h82l-29 -104q99 82 205 106q35 8 67 9q65 0 119 -34l-24 -96q-42 43 -106 51q-16 2 -33 3q-47 0 -93 -19q-62 -25 -113 -80t-71 -137l-193 -723h-79z" />
<glyph unicode="s" horiz-adv-x="757" d="M7 178q-3 20 -3 42q0 37 8 77h82q-9 -35 -9 -66q1 -55 29 -95q44 -64 148 -64q98 0 177 62.5t110 172.5q7 28 7 51q0 52 -34 88q-50 50 -143 66q-55 8 -97 29.5t-71 53.5t-39 73q-4 17 -4 36q0 26 8 54q16 61 50 112.5t80 87t99.5 56t108.5 20.5q86 0 144.5 -42 t78.5 -109l-75 -43q-12 51 -56.5 81.5t-113.5 30.5q-78 0 -144.5 -53t-89.5 -141q-8 -33 0 -60.5t29.5 -49t54.5 -36t68 -20.5q61 -8 107 -32.5t77 -61.5t41 -85q4 -20 4 -42q0 -30 -8 -64q-18 -70 -58.5 -128t-93.5 -100t-114.5 -65.5t-124.5 -23.5q-66 0 -116 24.5 t-80 66.5t-37 97z" />
<glyph unicode="t" horiz-adv-x="532" d="M28 162q-6 25 -5 53q0 42 12 92l168 635h-82l22 82h82l107 410h82l-107 -410h185l-23 -82h-184l-168 -635q-9 -39 -9 -71q0 -22 4 -40q11 -46 43.5 -77t80.5 -43q22 -6 46 -6q19 0 40 4l-21 -82q-18 -2 -35 -2q-41 0 -80 10q-59 18 -101.5 59t-56.5 103z" />
<glyph unicode="u" horiz-adv-x="849" d="M47 180q-2 18 -2 36q0 43 12 91l191 717h82l-191 -717q-11 -44 -11 -80q0 -55 26 -93q44 -62 149 -62q92 0 172 59t113 166l192 727h82l-194 -729q-12 -49 -22 -88q-8 -32 -7 -57v-10q2 -28 13.5 -43t41.5 -15l-20 -82q-66 0 -91.5 29.5t-25.5 81.5q-57 -55 -130 -88 t-146 -33q-66 0 -116 23.5t-80 66t-38 100.5z" />
<glyph unicode="v" horiz-adv-x="704" d="M162 55l33 957h86l-29 -854q-2 -23 6 -23t23 23l417 854h86l-471 -957q-12 -23 -37.5 -39t-50.5 -16h-6q-23 0 -40 16.5t-17 38.5z" />
<glyph unicode="w" horiz-adv-x="1064" d="M104 63l84 947h86l-75 -848q-4 -23 3 -23t19 23l369 848h158l-76 -848q-4 -23 3 -23t19 23l367 848h86l-414 -947q-10 -23 -35.5 -40t-50.5 -17h-16q-25 0 -40.5 17.5t-12.5 39.5l77 855q0 23 -6 22.5t-16 -22.5l-373 -855q-10 -23 -35.5 -40t-50.5 -17h-16 q-25 0 -40.5 17.5t-13.5 39.5z" />
<glyph unicode="x" horiz-adv-x="634" d="M-92 0l362 512l-96 512h92l76 -410l293 410h92l-365 -512l95 -512h-92l-76 410l-291 -410h-90z" />
<glyph unicode="y" horiz-adv-x="706" d="M-164 -545l21 82q76 4 146.5 50t109.5 120l112 225l21 1092h86l-17 -920l469 920h86l-684 -1333q-25 -53 -66.5 -95t-86.5 -73t-96.5 -48.5t-100.5 -19.5z" />
<glyph unicode="z" horiz-adv-x="675" d="M-67 19.5q-5 15.5 10 37.5l594 836q14 23 9 38t-30 15h-309l20 82h439q25 0 29.5 -15.5t-9.5 -37.5l-598 -836q-14 -23 -9 -38t30 -15h348h2l-21 -82h-2h-475q-23 0 -28 15.5z" />
<glyph unicode="{" horiz-adv-x="530" d="M103.5 140q-13.5 77 11.5 163l37 137q12 51 23 94.5t11 75t-11 49t-44 17.5l21 82q33 0 54 17.5t35.5 49t28 74.5t25.5 94l37 140q25 86 77 162.5t126 134.5q63 51 149 86l14 -74q-70 -29 -123 -72q-57 -45 -100 -106t-61 -131l-37 -140q-8 -35 -21.5 -73.5t-33 -75.5 t-44 -71t-51.5 -56q14 -25 22.5 -57.5t6.5 -70.5t-8 -77t-15 -72l-36 -137q-18 -70 -8 -131t42 -109q33 -41 86 -69l-55 -76q-68 35 -104 88q-41 57 -54.5 134z" />
<glyph unicode="|" horiz-adv-x="368" d="M-86 -164l459 1761h82l-461 -1761h-80z" />
<glyph unicode="}" horiz-adv-x="530" d="M-168 -6q70 29 121 69q55 47 98 108.5t62 131.5l37 137q8 33 20 72t32.5 77t43 70.5t57.5 57.5q-23 23 -29 56.5t-5 70.5t8.5 75.5t15.5 73.5l37 140q18 70 8 131t-43 106q-33 43 -86 72l55 74q66 -35 105 -86q41 -57 54 -134t-11 -163l-37 -140q-12 -51 -23.5 -94 t-11.5 -74.5t11 -49t44 -17.5l-20 -82q-33 0 -54.5 -17.5t-36 -49t-27.5 -74.5t-26 -95l-36 -137q-25 -86 -77 -163t-124 -134q-59 -53 -148 -88z" />
<glyph unicode="~" horiz-adv-x="1038" d="M111 594q57 86 129.5 120t144.5 34q55 0 93 -23t72 -48.5t66.5 -48t81.5 -22.5q41 0 84 28t76 75l66 -33q-47 -72 -113 -112t-133 -40q-63 0 -106.5 27t-79.5 55q-29 23 -57.5 41.5t-69.5 18.5q-47 0 -97.5 -24t-91.5 -81z" />
<glyph unicode="&#xa1;" horiz-adv-x="348" d="M-55 0l315 1126h41l-276 -1126h-80zM270 1362q8 29 35 50.5t55 21.5q29 0 45.5 -21.5t8.5 -50.5q-6 -29 -34 -50.5t-56 -21.5q-29 0 -44.5 21.5t-9.5 50.5z" />
<glyph unicode="&#xa2;" horiz-adv-x="1138" d="M51 -305l185 346q-98 55 -138.5 184t11.5 322q47 178 138 305t225 191.5t255 64.5q37 0 98 -8l170 307l101 -33l-170 -307q90 -43 122.5 -115.5t28.5 -181.5l-186 -27q4 113 -49 172l-424 -768q31 -8 59 -8q102 0 197.5 71t144.5 200l174 -21q-82 -184 -233.5 -290.5 t-319.5 -106.5q-49 0 -98 14l-190 -344zM269 333q7 -91 55 -136l426 764q-33 2 -52 2q-82 0 -164.5 -45.5t-143 -140.5t-95.5 -222q-33 -131 -26 -222z" />
<glyph unicode="&#xa3;" horiz-adv-x="860" d="M-66 0l293 1126q20 84 69.5 145.5t112 102.5t134.5 60q59 14 114 8l-20 -82q-43 8 -86 -2q-55 -12 -104.5 -43t-85 -77t-52.5 -112l-110 -421h348l-23 -82h-348l-143 -541h614l-20 -82h-693z" />
<glyph unicode="&#xa4;" horiz-adv-x="1318" d="M39 336l184 141q-43 117 -6 248q33 131 137 248l-110 141l157 125l105 -145q133 76 270 75q139 0 228 -75l186 145l86 -125l-182 -141q45 -117 12 -248q-37 -131 -143 -248l108 -141l-156 -127l-104 147q-131 -76 -270 -75q-137 0 -228 75l-186 -147zM387 725 q-31 -113 27.5 -192.5t171.5 -79.5t213 79.5t131 192.5q27 113 -30.5 192.5t-170.5 79.5t-214 -79.5t-128 -192.5z" />
<glyph unicode="&#xa5;" horiz-adv-x="839" d="M121 438l20 82h187l24 103h-186l22 82h187l-137 729h94l114 -615l439 615h90l-518 -729h161l-22 -82h-162l-24 -103h161l-20 -82h-162l-117 -438h-82l117 438h-186z" />
<glyph unicode="&#xa6;" horiz-adv-x="368" d="M-86 -164l188 737h82l-190 -737h-80zM145 737l228 860h82l-228 -860h-82z" />
<glyph unicode="&#xa7;" horiz-adv-x="1138" d="M41 -8l170 24q-6 -119 36 -166t136 -47q92 0 155.5 47.5t79.5 110.5q12 45 -8 84q-39 66 -248 219q-109 82 -149.5 128t-58 108.5t1.5 130.5q25 88 95.5 157.5t172.5 98.5q-49 61 -61.5 112.5t2.5 110.5q31 113 143.5 198t261.5 85q168 0 240.5 -80t52.5 -232l-174 -18 q12 111 -24 154t-117 43q-80 0 -142.5 -45.5t-77.5 -98.5q-12 -45 11 -86q31 -59 219 -196q121 -86 160 -127q49 -53 63 -110.5t-4 -125.5q-25 -102 -109 -174q-49 -41 -163 -82q59 -55 77.5 -117.5t-0.5 -134.5q-20 -80 -83.5 -150.5t-158 -107.5t-192.5 -37 q-170 0 -247.5 85t-59.5 239zM307 649q-16 -55 15 -106q25 -51 147 -137q102 -71 170 -134q78 35 122 80t56 88q12 51 -18 109q-31 57 -162 151q-102 76 -152 125q-84 -43 -125 -84t-53 -92z" />
<glyph unicode="&#xa8;" horiz-adv-x="684" d="M33 1186l53 205h188l-53 -205h-188zM406 1186l53 205h188l-53 -205h-188z" />
<glyph unicode="&#xa9;" horiz-adv-x="1511" d="M100 735q47 172 176.5 329t307.5 241t344 84q164 0 298 -84t180 -241t-1 -329q-43 -168 -170 -323.5t-304 -241.5t-347 -86t-302 86t-178.5 241.5t-3.5 323.5zM209 735q-35 -139 2 -269t149.5 -201.5t251.5 -71.5q141 0 289 71.5t254.5 201.5t140.5 269q39 141 1.5 272.5 t-150.5 202t-248 70.5q-139 0 -286.5 -70.5t-256 -201.5t-147.5 -273zM412 733q31 115 96 199t156.5 127t195.5 43q115 0 175.5 -55.5t66.5 -147.5l-111 -27q-8 66 -50 100t-110 34q-100 0 -182 -71t-119 -204q-33 -133 9.5 -199.5t138.5 -66.5q78 0 149.5 44t108.5 122 l100 -33q-55 -106 -156.5 -171t-220.5 -65q-154 0 -223 98.5t-24 272.5z" />
<glyph unicode="&#xaa;" horiz-adv-x="765" d="M4 862q14 49 40 85t62.5 63.5t94.5 44.5q39 12 104 22l154 21q76 14 100 20q16 70 11 94.5t-36.5 42t-91.5 17.5q-78 0 -126 -33t-72 -92l-129 33q35 90 127 149.5t233 59.5q164 0 215 -62q51 -61 21 -180l-64 -240l-16 -61q-37 -135 -8 -184h-150q-6 41 4 90 q-152 -109 -284 -109q-115 0 -163 61.5t-26 157.5zM154 862q-10 -41 16.5 -69.5t87.5 -28.5q74 0 138.5 39t95.5 96q11 20 34 102q-57 -14 -200 -36q-92 -12 -127 -39q-33 -25 -45 -64z" />
<glyph unicode="&#xab;" horiz-adv-x="1124" d="M133 528l438 455h148l-379 -455l135 -456h-145zM526 528l432 455h152l-383 -455l141 -456h-151z" />
<glyph unicode="&#xac;" horiz-adv-x="1196" d="M147 862l46 168h966l-160 -606h-170l115 438h-797z" />
<glyph unicode="&#xad;" horiz-adv-x="720" d="M76 459l41 143h524l-41 -143h-524z" />
<glyph unicode="&#xae;" horiz-adv-x="1509" d="M96 735q47 172 177 330t310.5 243t346.5 85t300 -85t180 -243t-1 -330q-43 -170 -170 -326.5t-307 -242.5t-350 -86q-172 0 -304.5 86t-178.5 242.5t-3 326.5zM205 735q-37 -141 2 -271t150.5 -203t252.5 -73t291 73t256.5 203t142.5 271q41 143 2.5 274.5t-151.5 203 t-250 71.5q-139 0 -288.5 -71.5t-258 -202.5t-149.5 -275zM371 373l186 706h244q125 0 175 -19.5t69.5 -67.5t7.5 -103q-20 -78 -91 -135.5t-165 -65.5q35 -14 51 -37q31 -41 67 -141l50 -137h-140l-32 110q-39 133 -76 166q-25 25 -84 25h-68l-80 -301h-114zM590 770h137 q100 0 144 29.5t59 79.5q6 31 -4.5 56.5t-38 37.5t-111.5 12h-129z" />
<glyph unicode="&#xb0;" horiz-adv-x="819" d="M127 1112q27 115 130 196t218 81t174.5 -81t32.5 -196q-31 -115 -133.5 -196.5t-216.5 -81.5q-115 0 -175.5 80.5t-29.5 197.5zM238 1112q-18 -70 16.5 -120t103.5 -50q70 0 133.5 50t81.5 120t-18.5 119t-105.5 49q-70 0 -131.5 -49t-79.5 -119z" />
<glyph unicode="&#xb1;" horiz-adv-x="1124" d="M-82 0l43 168h965l-43 -168h-965zM90 664l43 165h399l105 400h170l-105 -400h400l-43 -165h-400l-108 -404h-170l108 404h-399z" />
<glyph unicode="&#xb2;" horiz-adv-x="681" d="M-74 631q23 57 74 114q86 86 258 190.5t207 133.5q47 41 59 84q12 49 -14.5 80t-95.5 31q-66 0 -105 -23.5t-76 -91.5l-149 16q61 111 146 164t221 53q152 0 205 -59t30 -145q-23 -84 -98 -158q-59 -55 -250 -172q-100 -59 -143 -96h385l-35 -121h-619z" />
<glyph unicode="&#xb3;" horiz-adv-x="681" d="M-12 831l147 15q4 -59 31 -82q35 -31 94 -31q70 0 123 39t70 94q12 51 -16.5 81t-114.5 30q-12 0 -33 -2q-14 -2 -23 -2l53 110q80 0 126.5 30t54.5 73q12 37 -12.5 62.5t-81.5 25.5t-95.5 -21.5t-74.5 -78.5l-138 22q68 106 142.5 148t195.5 42q143 0 193.5 -54 t29.5 -134q-12 -55 -59 -98t-119 -62q82 -23 111 -73t10 -117q-25 -92 -122 -162t-242 -70q-139 0 -197.5 55.5t-52.5 159.5z" />
<glyph unicode="&#xb4;" horiz-adv-x="681" d="M182 1110l207 281h238l-295 -281h-150z" />
<glyph unicode="&#xb5;" horiz-adv-x="1177" d="M-35 -408l387 1471h178l-118 -451q-66 -246 -60 -318.5t54.5 -114.5t123.5 -42q80 0 155 44t120 114t108 313l121 455h176l-280 -1063h-162l33 127q-74 -82 -131 -111q-82 -41 -174 -41q-84 0 -138 33q-43 25 -82 98l-135 -514h-176z" />
<glyph unicode="&#xb6;" horiz-adv-x="1099" d="M168 1004q45 176 184.5 281.5t352.5 105.5h583l-43 -160h-133l-412 -1563h-155l411 1563h-206l-412 -1563h-150l254 963q-172 6 -244.5 108.5t-29.5 264.5z" />
<glyph unicode="&#xb7;" horiz-adv-x="696" d="M217 614l53 205h205l-53 -205h-205z" />
<glyph unicode="&#xb8;" horiz-adv-x="681" d="M49 -410l43 117q61 -4 92 -4q92 0 138 27q35 20 45 49q2 18 -4.5 32.5t-36 23.5t-103.5 11l103 177h133l-64 -107q86 -10 117 -52t18 -95q-20 -74 -108 -132.5t-232 -58.5q-82 0 -141 12z" />
<glyph unicode="&#xb9;" horiz-adv-x="679" d="M121 1075l35 123q66 20 156.5 73.5t154.5 114.5h106l-200 -751h-144l148 553q-123 -80 -256 -113z" />
<glyph unicode="&#xba;" horiz-adv-x="745" d="M41 1008q49 180 167 280.5t263 100.5t209.5 -100.5t15.5 -276.5q-45 -174 -163.5 -274.5t-260.5 -100.5q-145 0 -209.5 98.5t-21.5 272.5zM188 1012q-31 -125 5 -183.5t114 -58.5q80 0 145.5 58.5t100.5 189.5q31 121 -4 179t-115 58t-144.5 -57t-101.5 -186z" />
<glyph unicode="&#xbb;" horiz-adv-x="1136" d="M16 72l387 456l-145 455h152l194 -455l-436 -456h-152zM408 72l383 456l-142 455h148l200 -455l-442 -456h-147z" />
<glyph unicode="&#xbc;" horiz-adv-x="833" d="M-16 0l718 1434h84l-720 -1434h-82zM231 879l127 473h-69l20 82h152l-148 -555h-82zM299 158l16 61l183 344h84l-172 -323h59l31 114h82l-31 -114h72l-21 -82h-72l-41 -158h-81l41 158h-150z" />
<glyph unicode="&#xbd;" horiz-adv-x="815" d="M-16 0l718 1434h84l-720 -1434h-82zM231 879l127 473h-69l20 82h152l-148 -555h-82zM260 0q16 63 41 108.5t54.5 79t61.5 59t60 48.5q43 29 74 57.5t37 57.5q10 29 -4.5 48t-48.5 19q-23 0 -49.5 -15.5t-53.5 -41.5l-63 41q43 45 93 71.5t95 26.5q78 0 103.5 -45 t9.5 -104q-14 -53 -57.5 -96.5t-92.5 -82.5q-45 -31 -86 -65.5t-65 -83.5h215l-21 -82h-303z" />
<glyph unicode="&#xbe;" horiz-adv-x="929" d="M78 0l721 1434h84l-721 -1434h-84zM166 973l86 41q14 -27 31.5 -42.5t40.5 -15.5q39 0 72.5 28t43.5 69q8 35 -20.5 59.5t-77.5 24.5l29 82q35 0 66.5 19t35.5 42q10 35 -3 55.5t-42 20.5q-23 0 -48.5 -15.5t-53.5 -42.5l-62 41q45 45 94.5 72t90.5 27q59 0 92.5 -43 t15.5 -113q-8 -29 -26.5 -54.5t-43.5 -45.5q53 -49 33 -129q-20 -78 -83.5 -128.5t-135.5 -50.5q-41 0 -78 27t-57 72zM395 158l15 61l184 344h84l-172 -323h59l31 114h82l-31 -114h72l-21 -82h-71l-41 -158h-82l41 158h-150z" />
<glyph unicode="&#xbf;" horiz-adv-x="770" d="M-42 210.5q-9 67.5 11 147.5q14 61 40 110.5t58.5 91.5t70.5 81t77 82q41 41 82 84t81 92t69.5 104.5t48.5 122.5h41q-18 -76 -46 -138t-63 -115.5t-76 -101.5t-82 -93q-39 -37 -71.5 -72t-62.5 -71.5t-51.5 -79.5t-37.5 -97q-14 -63 -9 -116.5t32.5 -91t69.5 -58 t98 -20.5q86 0 165.5 37.5t143.5 101.5l57 -45q-78 -80 -180 -128t-207 -48q-72 0 -128 27.5t-89 76.5t-42 116.5zM506 1362q10 29 36.5 50.5t55.5 21.5t45 -21.5t6 -50.5q-6 -29 -33.5 -50.5t-56.5 -21.5t-44 21.5t-9 50.5z" />
<glyph unicode="&#xc0;" horiz-adv-x="925" d="M-152 0l269 551q25 37 60.5 65.5t84.5 30.5h324q39 4 41 28.5t4 78.5q0 78 1 157.5t1 171.5v254l-342 -628q-12 0 -19 -2q-23 -4 -52.5 -17.5t-47.5 -30.5q-2 -2 -4 -3t2 6q4 8 25.5 44.5t72.5 125t135 238t211 384.5h103v-440v-104.5t-2 -92.5q0 -33 1 -66.5t-11 -70.5 q-10 -43 -43 -74q-16 -16 -36 -25.5t-40 -13.5q-10 -2 -17.5 -2h-13.5h-322q-12 0 -23 -11t-17 -24l-261 -530h-84zM405 1876h94l15 -246h-66zM610 0l4 528q29 6 54.5 35t40.5 64l-15 -627h-84z" />
<glyph unicode="&#xc1;" horiz-adv-x="925" d="M-207 0h84l258 530q8 12 18.5 23.5t22.5 11.5h322h14t18 2q20 4 40 13.5t36 25.5q33 31 43 74q12 37 10 70.5t0 66.5q2 41 2.5 92.5t0.5 104.5v440h-103q-127 -236 -211 -385t-135 -237.5t-72.5 -125t-25.5 -44.5q-4 -6 -3 -5.5l5 2.5q16 16 47 29.5t53 18.5q6 2 19 2 l342 628v-254q-2 -92 -2.5 -172t-0.5 -157q-2 -27 -2 -46.5t-3 -31.5t-12 -19.5t-30 -9.5h-323q-47 -2 -84 -30.5t-60 -65.5zM555 0h84l14 627q-14 -35 -39.5 -63.5t-54.5 -35.5zM557 1630l145 246h91l-170 -246h-66z" />
<glyph unicode="&#xc2;" horiz-adv-x="925" d="M-207 0h84l258 530q8 12 18.5 23.5t22.5 11.5h322h14t18 2q20 4 40 13.5t36 25.5q33 31 43 74q12 37 10 70.5t0 66.5q2 41 2.5 92.5t0.5 104.5v440h-103q-127 -236 -211 -385t-135 -237.5t-72.5 -125t-25.5 -44.5q-4 -6 -3 -5.5l5 2.5q16 16 47 29.5t53 18.5q6 2 19 2 l342 628v-254q-2 -92 -2.5 -172t-0.5 -157q-2 -27 -2 -46.5t-3 -31.5t-12 -19.5t-30 -9.5h-323q-47 -2 -84 -30.5t-60 -65.5zM453 1630l209 246h94l78 -246h-95l-41 207l-151 -207h-94zM555 0h84l14 627q-14 -35 -39.5 -63.5t-54.5 -35.5z" />
<glyph unicode="&#xc3;" horiz-adv-x="925" d="M-152 0l269 551q25 37 60.5 65.5t84.5 30.5h324q39 4 41 28.5t4 78.5q0 78 1 157.5t1 171.5v254l-342 -628q-12 0 -19 -2q-23 -4 -52.5 -17.5t-47.5 -30.5q-2 -2 -4 -3t2 6q4 8 25.5 44.5t72.5 125t135 238t211 384.5h103v-440v-104.5t-2 -92.5q0 -33 1 -66.5t-11 -70.5 q-10 -43 -43 -74q-16 -16 -36 -25.5t-40 -13.5q-10 -2 -17.5 -2h-13.5h-322q-12 0 -23 -11t-17 -24l-261 -530h-84zM166 1731q41 59 92 83.5t100 24.5q39 0 66.5 -15.5t50.5 -34.5t46.5 -34.5t57.5 -15.5q29 0 60 19.5t53 54.5l66 -33q-43 -59 -93.5 -86t-103.5 -27 q-37 0 -63.5 15.5t-50 35t-48 35t-59.5 15.5q-29 0 -57.5 -18.5t-53.5 -51.5zM610 0l4 528q29 6 54.5 35t40.5 64l-15 -627h-84z" />
<glyph unicode="&#xc4;" horiz-adv-x="925" d="M-188 0h84l260 530q6 12 17 23.5t24 11.5h321h13.5t17.5 2q20 4 41 13.5t35 25.5q18 16 28.5 34.5t16.5 39.5q10 37 9 70.5t-1 66.5q2 41 2 92.5v104.5v440h-102q-127 -236 -211 -385t-135.5 -237.5t-73 -125t-25.5 -44.5q-4 -6 -2 -5.5t4 2.5q18 16 48 29.5t53 18.5 q6 2 18 2l342 628v-254q2 -92 0 -172t-2 -157q-2 -53 -4 -78t-41 -29h-324q-49 -2 -85 -30.5t-60 -65.5zM492 1681q6 23 24.5 37.5t40.5 14.5q23 0 33 -14.5t4 -37.5t-24.5 -37t-41.5 -14t-32.5 14t-3.5 37zM573 0h84l15 627q-14 -35 -40 -63.5t-54 -35.5zM758 1681 q6 23 24.5 37.5t40.5 14.5q23 0 33 -14.5t4 -37.5t-24.5 -37t-40.5 -14q-23 0 -33 14t-4 37z" />
<glyph unicode="&#xc5;" horiz-adv-x="925" d="M-211 0h84l258 530q6 12 17.5 23.5t23.5 11.5h322h13t17 2q20 4 41 13.5t35 25.5q18 16 28.5 34.5t18.5 39.5q10 37 8 70.5t-2 66.5q2 41 2 92.5v104.5v136.5v127.5v106.5v69.5h-102q-127 -236 -211 -385t-135 -237.5t-72.5 -125t-25.5 -44.5q-4 -6 -2 -5.5t4 2.5 q18 16 47.5 29.5t52.5 18.5q6 2 18 2l342 628v-254q2 -92 0 -172t-2 -157q-2 -53 -4 -78t-41 -29h-323q-47 -2 -84 -30.5t-62 -65.5zM494 1743q18 72 82.5 123t136.5 51t109.5 -51t19.5 -123t-83 -123t-136 -51q-72 0 -109.5 51t-19.5 123zM551 0h84l12 627 q-14 -35 -39.5 -63.5t-54.5 -35.5zM555 1743q-12 -47 11.5 -80t70.5 -33t89 33t54 80t-11.5 79.5t-70.5 32.5t-89 -32.5t-54 -79.5z" />
<glyph unicode="&#xc6;" horiz-adv-x="1570" d="M-135 0l1114 1434h696l-20 -82h-615l-135 -512h410l-23 -82h-409l-178 -676h614l-21 -82h-696l141 532h-385l-413 -532h-80zM422 614h342l174 662z" />
<glyph unicode="&#xc7;" horiz-adv-x="976" d="M78 247q-12 77 14 173l158 594q25 96 77 173t124.5 134t158.5 90t172 33t154 -33t98.5 -75t42.5 -70l-82 -43q-10 20 -33.5 53t-78 59.5t-123.5 26.5q-70 0 -138.5 -26.5t-127 -72.5t-100.5 -107.5t-62 -141.5l-158 -594q-20 -80 -11 -141.5t44 -107.5t89 -72.5 t124 -26.5t138.5 26.5t108.5 59t62 53.5l57 -43q-27 -29 -79 -71t-137 -74.5t-171 -32.5t-154.5 32.5t-111.5 90t-55 134.5zM160 -270l55 43q12 -18 37 -19q25 0 48.5 18.5t29.5 43.5q6 27 -7.5 44t-37.5 17l16 62q49 0 77 -36t13 -87q-14 -49 -60 -86t-95 -37t-76 37z" />
<glyph unicode="&#xc8;" horiz-adv-x="921" d="M-49 0h694l21 82h-615l164 614q10 39 41 53.5t55 18.5h16.5h42t96 -1t179.5 -1l23 82h-303q-59 0 -121 -25.5t-92 -79.5q-6 -10 -11.5 -22t-7.5 -25zM152 774q4 10 7 15.5t7 13.5q16 25 37.5 44t44.5 32l16 6l123 467h614l21 82h-696zM403 1876h95l14 -246h-66z" />
<glyph unicode="&#xc9;" horiz-adv-x="921" d="M-106 0h692l22 82h-612l160 614q10 39 40.5 53.5t55.5 18.5h16.5h42t96 -1t179.5 -1l24 82h-303q-59 0 -121.5 -25.5t-93.5 -79.5q-4 -10 -9 -22t-9 -25zM94 774q4 10 7 15.5t8 13.5q14 25 36.5 44t44.5 32l15 6l123 467h614l23 82h-697zM555 1630l145 246h91l-170 -246 h-66z" />
<glyph unicode="&#xca;" horiz-adv-x="921" d="M-106 0h692l22 82h-612l160 614q10 39 40.5 53.5t55.5 18.5h16.5h42t96 -1t179.5 -1l24 82h-303q-59 0 -121.5 -25.5t-93.5 -79.5q-4 -10 -9 -22t-9 -25zM94 774q4 10 7 15.5t8 13.5q14 25 36.5 44t44.5 32l15 6l123 467h614l23 82h-697zM451 1630l208 246h95l77 -246 h-94l-41 207l-151 -207h-94z" />
<glyph unicode="&#xcb;" horiz-adv-x="921" d="M-88 0h692l23 82h-615l162 614q10 39 41 53.5t55 18.5h16.5h42t96 -1t179.5 -1l25 82h-303q-59 0 -122 -25.5t-93 -79.5q-4 -10 -9.5 -22t-9.5 -25zM115 774q4 10 6 15.5t6 13.5q14 25 36.5 44t47.5 32l12 6l123 467h615l22 82h-696zM489 1681q6 23 24.5 37.5t41.5 14.5 t33 -14.5t4 -37.5t-24.5 -37t-41.5 -14t-33 14t-4 37zM756 1681q6 23 24.5 37.5t40.5 14.5q23 0 33 -14.5t4 -37.5t-24.5 -37t-40.5 -14q-23 0 -33 14t-4 37z" />
<glyph unicode="&#xcc;" horiz-adv-x="368" d="M-84 0h80l377 1434h-82zM283 1733h90l22 -197h-65z" />
<glyph unicode="&#xcd;" horiz-adv-x="368" d="M-84 0l375 1434h82l-377 -1434h-80zM334 1536l129 197h90l-154 -197h-65z" />
<glyph unicode="&#xce;" horiz-adv-x="368" d="M-80 0h80l375 1434h-82zM162 1536l198 176h95l108 -176h-104l-62 137l-131 -137h-104z" />
<glyph unicode="&#xcf;" horiz-adv-x="368" d="M-82 0l375 1434h82l-377 -1434h-80zM211 1669q6 23 24.5 37t40.5 14q23 0 33 -14t4 -37t-23.5 -37t-39.5 -14q-23 0 -34 14t-5 37zM477 1669q6 23 24.5 37t41.5 14t33 -14t4 -37t-23.5 -37t-40.5 -14t-34 14t-5 37z" />
<glyph unicode="&#xd0;" horiz-adv-x="1116" d="M-45 0l197 758h-103l23 82h102l156 594h420q86 0 154.5 -33t110.5 -90.5t54 -134t-12 -172.5l-152 -574q-25 -96 -78 -173t-125.5 -134t-157.5 -90t-171 -33h-418zM55 82h338q70 0 138.5 26.5t127 72.5t101.5 107.5t63 141.5l152 574q20 80 10 141t-44 107t-88 73 t-124 27h-338l-135 -512h225l-22 -82h-226z" />
<glyph unicode="&#xd1;" horiz-adv-x="1064" d="M-41 4l344 1313q4 16 14.5 37.5t25.5 40t33.5 32t41.5 13.5q45 0 57 -41q10 -39 17.5 -78t13.5 -82q6 -55 21.5 -150.5t35 -208t41 -233.5t42 -225.5t36.5 -181t25 -105.5q0 -4 2 -9t4 -9q23 61 54.5 171.5t68 243t73.5 275.5t71 269t59.5 222.5t37.5 137.5v2h78 q-86 -324 -172 -642.5t-172 -641.5q-4 -16 -12 -41t-22.5 -48.5t-33 -41t-45.5 -17.5q-18 0 -33.5 19.5t-27.5 49t-20.5 62.5t-12.5 58q-10 66 -32.5 183.5t-50 258.5t-55.5 290.5t-46 280.5q-4 35 -10.5 68t-10.5 67q-10 -8 -16 -34l-344 -1305h-80zM236 1731 q41 59 92 83.5t100 24.5q39 0 66.5 -15.5t50.5 -34.5t46.5 -34.5t57.5 -15.5q29 0 60 19.5t53 54.5l66 -33q-43 -59 -93.5 -86t-103.5 -27q-37 0 -63.5 15.5t-50 35t-48 35t-59.5 15.5q-29 0 -57.5 -18.5t-53.5 -51.5z" />
<glyph unicode="&#xd2;" d="M3.5 249q10.5 -79 52.5 -136.5t109.5 -90t153.5 -32.5t172.5 32.5t159 90t126.5 136.5t79 171l156 594q25 92 12.5 171t-54.5 136t-110.5 90t-154.5 33t-171 -33t-158 -90t-126 -136t-78 -171l-156 -594q-23 -92 -12.5 -171zM86 279.5q-10 64.5 12 140.5l156 594 q18 76 62 140.5t102.5 110.5t127 71.5t138.5 25.5t124 -25.5t88 -71.5t43 -110.5t-9 -140.5l-156 -594q-23 -76 -65.5 -140.5t-101 -110.5t-126 -71.5t-137.5 -25.5t-125 25.5t-89 71.5t-44 110.5zM657 1733h91l22 -197h-65z" />
<glyph unicode="&#xd3;" d="M4 249q-10 79 12 171l156 594q25 92 78 171t126 136t157.5 90t171.5 33q86 0 154.5 -33t110.5 -90t54 -136t-12 -171l-156 -594q-25 -92 -79 -171t-126.5 -136.5t-158.5 -90t-173 -32.5q-86 0 -153.5 32.5t-109.5 90t-52 136.5zM85.5 279.5q10.5 -64.5 44.5 -110.5 t89 -71.5t125 -25.5t137.5 25.5t126 71.5t101.5 110.5t65 140.5l156 594q18 76 9 140.5t-43 110.5t-88 71.5t-124 25.5t-138.5 -25.5t-127 -71.5t-102.5 -110.5t-62 -140.5l-156 -594q-23 -76 -12.5 -140.5zM688 1536l129 197h90l-153 -197h-66z" />
<glyph unicode="&#xd4;" d="M4.5 249q11.5 -79 54.5 -136.5t111 -90t154 -32.5t172 32.5t157.5 90t124.5 136.5t78 171l158 594q23 92 11.5 171t-53.5 136t-109.5 90t-153.5 33t-172 -33t-159 -90t-127 -136t-77 -171l-158 -594q-23 -92 -11.5 -171zM89 279.5q-9 64.5 9 140.5l158 594 q20 76 63 140.5t101.5 110.5t126 71.5t137.5 25.5t125 -25.5t89 -71.5t44 -110.5t-10 -140.5l-158 -594q-18 -76 -62 -140.5t-102.5 -110.5t-127 -71.5t-138.5 -25.5t-124 25.5t-88 71.5t-43 110.5zM530 1536l201 176h94l107 -176h-105l-59 137l-133 -137h-105z" />
<glyph unicode="&#xd5;" d="M5 249q-11 79 11 171l156 594q25 92 79 171t127 136t158 90t171 33t154.5 -33t110.5 -90t53 -136t-13 -171l-156 -594q-25 -92 -78 -171t-125.5 -136.5t-157.5 -90t-171 -32.5t-155 32.5t-111 90t-53 136.5zM88 279.5q8 -64.5 43 -110.5t89 -71.5t124 -25.5t138.5 25.5 t126 71.5t102.5 110.5t63 140.5l156 594q23 76 12.5 140.5t-44.5 110.5t-89 71.5t-125 25.5t-137.5 -25.5t-126 -71.5t-101.5 -110.5t-65 -140.5l-156 -594q-18 -76 -10 -140.5zM461 1610q41 59 92 83.5t100 24.5q39 0 67 -15t50.5 -34.5t46 -35t57.5 -15.5q29 0 60 19.5 t53 54.5l66 -33q-43 -59 -93.5 -86t-103.5 -27q-37 0 -63.5 15.5t-50 35t-48 35t-59.5 15.5q-29 0 -57.5 -18.5t-53.5 -51.5z" />
<glyph unicode="&#xd6;" d="M5 249q-11 79 11 171l156 594q25 92 79 171t127 136t158 90t171 33t154.5 -33t110.5 -90t53 -136t-13 -171l-156 -594q-25 -92 -78 -171t-125.5 -136.5t-157.5 -90t-171 -32.5t-155 32.5t-111 90t-53 136.5zM88 279.5q8 -64.5 42 -110.5t89 -71.5t125 -25.5t137.5 25.5 t126 71.5t103.5 110.5t63 140.5l156 594q23 76 12.5 140.5t-44.5 110.5t-89 71.5t-125 25.5t-137.5 -25.5t-126 -71.5t-101.5 -110.5t-65 -140.5l-156 -594q-18 -76 -10 -140.5zM582 1669q6 23 23.5 37t39.5 14q23 0 34 -14t5 -37t-24.5 -37t-41.5 -14t-32.5 14t-3.5 37z M848 1669q6 23 23.5 37t39.5 14q23 0 34 -14t5 -37t-24.5 -37t-40.5 -14q-23 0 -33 14t-4 37z" />
<glyph unicode="&#xd7;" horiz-adv-x="888" d="M129 453l258 202l-151 203l73 57l148 -202l258 202l41 -57l-254 -203l147 -202l-74 -58l-147 203l-258 -203z" />
<glyph unicode="&#xd8;" d="M40 249q-11 79 13 171l156 594q25 92 79 171t125.5 136t157.5 90t172 33t154 -33t111 -90t54 -136t-13 -171l-156 -594q-25 -92 -79 -171t-126 -136.5t-158 -90t-172 -32.5t-153.5 32.5t-110.5 90t-54 136.5zM130 247q22 -75 79 -122l614 1218q-47 18 -102 19 q-70 0 -137.5 -25.5t-126 -71.5t-102.5 -110.5t-64 -140.5l-156 -594q-27 -98 -5 -173zM274 88q43 -16 107 -16q70 0 137.5 25.5t125.5 71.5t102.5 110.5t64.5 140.5l156 594q27 98 5 174t-83 121z" />
<glyph unicode="&#xd9;" d="M3.5 249q10.5 -79 52.5 -136.5t109.5 -90t153.5 -32.5t172.5 32.5t159 90t126.5 136.5t79 171l266 1014h-82l-266 -1014q-23 -76 -65.5 -140.5t-101 -110.5t-126 -71.5t-137.5 -25.5t-125 25.5t-89 71.5t-44 110.5t12 140.5l267 1014h-82l-267 -1014q-23 -92 -12.5 -171z M678 1733h90l23 -197h-66z" />
<glyph unicode="&#xda;" d="M4 249q-10 79 12 171l267 1014h82l-267 -1014q-23 -76 -12.5 -140.5t44.5 -110.5t89 -71.5t125 -25.5t137.5 25.5t126 71.5t101.5 110.5t65 140.5l266 1014h82l-266 -1014q-25 -92 -79 -171t-126.5 -136.5t-158.5 -90t-173 -32.5q-86 0 -153.5 32.5t-109.5 90t-52 136.5z M668 1536l129 197h90l-154 -197h-65z" />
<glyph unicode="&#xdb;" d="M4.5 249q11.5 -79 54.5 -136.5t111 -90t154 -32.5t172 32.5t157.5 90t124.5 136.5t78 171l268 1014h-82l-268 -1014q-18 -76 -62 -140.5t-102.5 -110.5t-127 -71.5t-138.5 -25.5t-124 25.5t-88 71.5t-43 110.5t9 140.5l269 1014h-82l-269 -1014q-23 -92 -11.5 -171z M530 1536l201 176h94l107 -176h-105l-59 137l-133 -137h-105z" />
<glyph unicode="&#xdc;" d="M5 249q-11 79 11 171l267 1014h82l-267 -1014q-18 -76 -10 -140.5t42 -110.5t89 -71.5t125 -25.5t137.5 25.5t126 71.5t103.5 110.5t63 140.5l266 1014h82l-266 -1014q-25 -92 -78 -171t-125.5 -136.5t-157.5 -90t-171 -32.5t-155 32.5t-111 90t-53 136.5zM582 1669 q6 23 23.5 37t39.5 14q23 0 34 -14t5 -37t-24.5 -37t-41.5 -14t-32.5 14t-3.5 37zM848 1669q6 23 23.5 37t39.5 14q23 0 34 -14t5 -37t-24.5 -37t-40.5 -14q-23 0 -33 14t-4 37z" />
<glyph unicode="&#xdd;" horiz-adv-x="839" d="M137 0h82l184 702q-27 -20 -45 -20q-16 0 -36 20zM176 1432q2 -10 12.5 -52.5t23.5 -101.5t29.5 -128t32 -132.5t27.5 -112.5t18 -69q10 -35 30 -46.5t36 -11.5q39 0 67.5 24.5t36.5 33.5l441 598h-88q-104 -141 -177 -237.5t-120 -160t-74 -98.5t-40 -52.5t-17 -21.5 l-4 -4q-6 18 -17.5 59.5t-25 93.5t-27.5 112.5t-27.5 117.5t-25 106.5t-19.5 82.5h-92zM514 1630l145 246h91l-170 -246h-66z" />
<glyph unicode="&#xde;" horiz-adv-x="1003" d="M-45 0l375 1434h82l-50 -185h379q70 0 125.5 -26.5t89 -72.5t44 -107.5t-12.5 -141.5q-14 -59 -56 -120.5t-100.5 -107.5t-128 -73t-139.5 -27h-297l23 82h297q53 0 105 20.5t96 55.5t77 81t41 89q18 63 10 109.5t-33.5 81t-66.5 55t-94 20.5h-379l-307 -1167h-80z" />
<glyph unicode="&#xdf;" horiz-adv-x="829" d="M-63 0l292 1126q18 70 58.5 128.5t93.5 100.5t114.5 65.5t125.5 23.5q66 0 115.5 -23.5t79.5 -65.5t38 -100.5t-10 -128.5q-25 -88 -83.5 -146t-137.5 -99q59 -41 86.5 -100.5t3.5 -145.5l-86 -328q-18 -70 -58.5 -128t-93.5 -100t-114.5 -65.5t-124.5 -23.5l22 82 q98 0 178 62.5t109 172.5l86 328q27 98 -21.5 151.5t-158.5 53.5l20 82q111 0 187.5 50t103.5 154q29 111 -15.5 173.5t-148.5 62.5q-98 0 -178 -62.5t-109 -173.5l-297 -1126h-77z" />
<glyph unicode="&#xe0;" horiz-adv-x="823" d="M22 179q9 -58 39.5 -100t79.5 -65.5t113 -23.5q76 0 147.5 32.5t126.5 86.5q2 -49 27 -80q4 -6 12 -13l185 701q18 72 10 130t-37 100t-80 64.5t-117 22.5q-76 0 -155.5 -35.5t-132.5 -97.5l55 -39q94 90 211 90q104 0 149 -61.5t15 -173.5l-107 -410 q-31 -111 -106.5 -173t-180.5 -62q-98 0 -146 62.5t-17 172.5q25 92 103.5 148.5t176.5 56.5q41 0 75 -11.5t56 -31.5l25 90q-57 35 -135 35q-63 0 -125 -22.5t-114 -61.5t-91 -91t-53 -112q-18 -70 -9 -128zM354 1454h95l14 -246h-66z" />
<glyph unicode="&#xe1;" horiz-adv-x="823" d="M-32 179q9 -58 39 -100t78 -65.5t112 -23.5q76 0 148.5 32.5t127.5 86.5q0 -49 27 -80q4 -6 12 -13l184 701q18 72 10 130t-36.5 100t-79.5 64.5t-117 22.5q-76 0 -155.5 -35.5t-133.5 -97.5l56 -39q94 90 211 90q104 0 149 -61.5t14 -173.5l-106 -410 q-31 -111 -106.5 -173t-180.5 -62q-98 0 -146 62.5t-18 172.5q25 92 103 148.5t176 56.5q41 0 74.5 -11.5t58.5 -31.5l23 90q-57 35 -136 35q-63 0 -123.5 -22.5t-112.5 -61.5t-90 -91t-53 -112q-18 -70 -9 -128zM451 1208l147 246h90l-172 -246h-65z" />
<glyph unicode="&#xe2;" horiz-adv-x="823" d="M-32 179q9 -58 39 -100t78 -65.5t112 -23.5q76 0 148.5 32.5t127.5 86.5q0 -49 27 -80q4 -6 12 -13l184 701q18 72 10 130t-36.5 100t-79.5 64.5t-117 22.5q-76 0 -155.5 -35.5t-133.5 -97.5l56 -39q94 90 211 90q104 0 149 -61.5t14 -173.5l-106 -410 q-31 -111 -106.5 -173t-180.5 -62q-98 0 -146 62.5t-18 172.5q25 92 103 148.5t176 56.5q41 0 74.5 -11.5t58.5 -31.5l23 90q-57 35 -136 35q-63 0 -123.5 -22.5t-112.5 -61.5t-90 -91t-53 -112q-18 -70 -9 -128zM346 1208l211 246h94l76 -246h-94l-41 207l-152 -207h-94z " />
<glyph unicode="&#xe3;" horiz-adv-x="823" d="M22 179q9 -58 39.5 -100t79.5 -65.5t113 -23.5q76 0 147.5 32.5t126.5 86.5q2 -49 27 -80q4 -6 12 -13l185 701q18 72 10 130t-37 100t-80 64.5t-117 22.5q-76 0 -155.5 -35.5t-132.5 -97.5l55 -39q94 90 211 90q104 0 149 -61.5t15 -173.5l-107 -410 q-31 -111 -106.5 -173t-180.5 -62q-98 0 -146 62.5t-17 172.5q25 92 103.5 148.5t176.5 56.5q41 0 75 -11.5t56 -31.5l25 90q-57 35 -135 35q-63 0 -125 -22.5t-114 -61.5t-91 -91t-53 -112q-18 -70 -9 -128zM117 1309q41 59 92 83.5t100 24.5q39 0 66.5 -15.5t50.5 -34.5 t46.5 -34.5t57.5 -15.5q29 0 60 19.5t53 54.5l66 -33q-43 -59 -93.5 -86t-103.5 -27q-37 0 -63.5 15.5t-50 35t-48 35t-59.5 15.5q-29 0 -57.5 -18.5t-53.5 -51.5z" />
<glyph unicode="&#xe4;" horiz-adv-x="823" d="M-13 179q9 -58 38.5 -100t79 -65.5t112.5 -23.5q76 0 147.5 32.5t127.5 86.5q2 -49 26 -80q4 -6 12 -13l185 701q18 72 10 130t-37 100t-79 64.5t-115 22.5q-76 0 -157 -35.5t-134 -97.5l57 -39q94 90 211 90q104 0 148.5 -61.5t13.5 -173.5l-107 -410 q-31 -111 -106.5 -173t-179.5 -62q-98 0 -146.5 62.5t-17.5 172.5q25 92 103.5 148.5t176.5 56.5q41 0 75 -11.5t56 -31.5l25 90q-57 35 -135 35q-63 0 -125 -22.5t-114 -61.5t-91 -91t-51 -112q-18 -70 -9 -128zM387 1260q4 23 22.5 37t41.5 14t33 -14.5t5 -36.5 q-6 -23 -24.5 -37.5t-40.5 -14.5q-23 0 -33 14.5t-4 37.5zM653 1260q4 23 22.5 37t41.5 14t33 -14.5t6 -36.5q-6 -23 -24.5 -37.5t-41.5 -14.5t-33 14.5t-4 37.5z" />
<glyph unicode="&#xe5;" horiz-adv-x="823" d="M-37 179q8 -58 38 -100t79 -65.5t113 -23.5q76 0 147.5 32.5t126.5 86.5q2 -49 27 -80q6 -6 12 -13l184 701q18 72 11 130t-36.5 100t-79.5 64.5t-116 22.5q-76 0 -157 -35.5t-134 -97.5l58 -39q94 90 210 90q104 0 148.5 -61.5t13.5 -173.5l-106 -410 q-29 -111 -106 -173t-181 -62q-98 0 -145 62.5t-19 172.5q25 92 103.5 148.5t177.5 56.5q41 0 74.5 -11.5t56.5 -31.5l24 90q-57 35 -135 35q-63 0 -124.5 -22.5t-114 -61.5t-90 -91t-52.5 -112q-16 -70 -8 -128zM387 1321q18 72 84 123t137 51q72 0 109 -51t18 -123 q-18 -72 -82.5 -123t-136.5 -51t-109.5 51t-19.5 123zM449 1321q-12 -47 12 -80t71 -33t88.5 33t53.5 80t-11.5 80t-70.5 33t-89 -33t-54 -80z" />
<glyph unicode="&#xe6;" horiz-adv-x="1318" d="M21.5 179.5q-9.5 58.5 9.5 127.5q14 59 53 111.5t91 91.5t113.5 61.5t125.5 22.5q78 0 135 -35l-25 -90q-23 20 -56.5 31.5t-74.5 11.5q-98 0 -177 -56.5t-103 -148.5q-31 -111 17 -173t146 -62q100 0 176 58t107 165l111 422q31 113 -14.5 174t-149.5 61 q-117 0 -211 -90l-55 39q53 61 133 97t155 36q88 0 147.5 -40t78.5 -111q59 70 139 110.5t168 40.5q63 0 112.5 -23.5t80 -65.5t40 -100.5t-9.5 -127.5q-14 -59 -53 -111.5t-91.5 -91.5t-113.5 -61.5t-125 -22.5h-143l24 82h144q98 0 177 61.5t103 153.5q29 111 -20 168 t-148 57q-104 0 -179 -57t-103 -168l-115 -432q-23 -106 21.5 -164.5t146.5 -58.5q115 0 209 90l55 -43q-57 -59 -134 -94t-153 -35q-88 0 -147 39t-80 110q-59 -72 -139 -110.5t-166 -38.5q-63 0 -112.5 23.5t-80 65.5t-40 100.5z" />
<glyph unicode="&#xe7;" horiz-adv-x="737" d="M65.5 179.5q-8.5 58.5 10.5 127.5l108 410q18 72 57.5 130t90.5 100t113.5 64.5t127.5 22.5q74 0 133.5 -33.5t86.5 -99.5l-76 -39q-8 23 -24.5 40.5t-39 28.5t-49 16t-51.5 5q-104 0 -181 -61.5t-106 -173.5l-108 -410q-31 -111 13 -173t148 -62q53 0 110.5 21.5 t98.5 68.5l56 -43q-55 -57 -132 -93t-153 -36q-66 0 -116 23.5t-79.5 65.5t-38 100.5zM127 -272l55 43q12 -18 37 -19q25 0 48.5 18.5t29.5 43.5q8 27 -5 44t-38 17l14 62q49 0 77 -36t13 -87q-12 -49 -58 -86t-95 -37t-78 37z" />
<glyph unicode="&#xe8;" horiz-adv-x="792" d="M-27 176q7 -59 35.5 -100t78.5 -63.5t116 -22.5q76 0 152.5 34.5t136.5 94.5l-56 43q-94 -90 -209 -90q-104 0 -149 61.5t-15 173.5l111 420q27 111 102.5 168t180.5 57q98 0 146 -57t22 -168q-25 -92 -105 -153.5t-178 -61.5h-143l-23 -82h143q63 0 125 22.5t114 61.5 t91 91t53 112q18 70 9 128t-39.5 100t-79.5 65.5t-113 23.5q-66 0 -128 -23.5t-114.5 -65.5t-91.5 -100.5t-57 -127.5l-104 -410q-18 -72 -11 -131zM465 1454h94l12 -246h-65z" />
<glyph unicode="&#xe9;" horiz-adv-x="792" d="M-27.5 176.5q-7.5 59.5 11.5 130.5l104 410q18 70 57 128t91.5 100t115 65.5t127.5 23.5q63 0 112.5 -23.5t80 -65.5t40 -100.5t-9.5 -127.5q-14 -59 -53 -111.5t-91 -91.5t-113.5 -61.5t-125.5 -22.5h-143l23 82h143q98 0 178 61.5t105 153.5q27 111 -21.5 168 t-146.5 57q-104 0 -180 -57t-103 -168l-111 -420q-31 -113 14.5 -174t149.5 -61q115 0 209 90l56 -43q-59 -59 -136 -94t-153 -35q-66 0 -116 22.5t-78.5 63.5t-36 100.5zM485 1208l148 246h90l-172 -246h-66z" />
<glyph unicode="&#xea;" horiz-adv-x="792" d="M-27 176q7 -59 35.5 -100t78.5 -63.5t116 -22.5q76 0 152.5 34.5t136.5 94.5l-56 43q-94 -90 -209 -90q-104 0 -149 61.5t-15 173.5l111 420q27 111 102.5 168t180.5 57q98 0 146 -57t22 -168q-25 -92 -105 -153.5t-178 -61.5h-143l-23 -82h143q63 0 125 22.5t114 61.5 t91 91t53 112q18 70 9 128t-39.5 100t-79.5 65.5t-113 23.5q-66 0 -128 -23.5t-114.5 -65.5t-91.5 -100.5t-57 -127.5l-104 -410q-18 -72 -11 -131zM330 1208l211 246h94l76 -246h-95l-41 207l-151 -207h-94z" />
<glyph unicode="&#xeb;" horiz-adv-x="792" d="M-8 176.5q-8 59.5 8 130.5l106 410q18 70 57.5 128t92.5 100t115.5 65.5t128.5 23.5q63 0 112.5 -23.5t79 -65.5t38.5 -100.5t-9 -127.5q-14 -59 -53 -111.5t-91.5 -91.5t-113 -61.5t-123.5 -22.5h-143l22 82h143q98 0 177 61.5t104 153.5q31 111 -18.5 168t-147.5 57 q-104 0 -179 -57t-105 -168l-111 -420q-31 -113 14 -174t150 -61q115 0 209 90l55 -43q-57 -59 -134 -94t-153 -35q-66 0 -116 22.5t-78.5 63.5t-36.5 100.5zM375 1260q4 23 22.5 37t40.5 14q23 0 33 -14.5t6 -36.5q-6 -23 -24.5 -37.5t-40.5 -14.5q-23 0 -33 14.5t-4 37.5z M641 1260q4 23 22.5 37t41.5 14t33 -14.5t5 -36.5q-6 -23 -24.5 -37.5t-40.5 -14.5q-23 0 -33 14.5t-4 37.5z" />
<glyph unicode="&#xec;" horiz-adv-x="327" d="M-68 0l267 1024h82l-271 -1024h-78zM213 1454h94l15 -246h-66z" />
<glyph unicode="&#xed;" horiz-adv-x="327" d="M-68 0l267 1024h82l-271 -1024h-78zM262 1208l146 246h90l-170 -246h-66z" />
<glyph unicode="&#xee;" horiz-adv-x="327" d="M-68 0l267 1024h82l-271 -1024h-78zM98 1208l209 246h94l78 -246h-94l-41 207l-151 -207h-95z" />
<glyph unicode="&#xef;" horiz-adv-x="327" d="M-49 0l266 1024h82l-268 -1024h-80zM137 1260q4 23 22.5 37t41.5 14t33 -14.5t6 -36.5q-6 -23 -24.5 -37.5t-41.5 -14.5t-33 14.5t-4 37.5zM403 1260q4 23 22.5 37t41.5 14t33 -14.5t6 -36.5q-6 -23 -24.5 -37.5t-41.5 -14.5t-33 14.5t-4 37.5z" />
<glyph unicode="&#xf0;" horiz-adv-x="798" d="M-26.5 179.5q-8.5 58.5 10.5 127.5l108 410q18 72 57 130t90.5 100t114 64.5t127.5 22.5l-20 -82q-104 0 -182 -61.5t-105 -173.5l-111 -410q-29 -111 15.5 -173t148.5 -62q98 0 178 62.5t109 172.5l49 189q31 115 49.5 221t20.5 200.5t-14.5 172t-55.5 137.5l-203 -92 l-12 55l180 82q-37 37 -86 61.5t-116 32.5l34 78q90 -10 155 -43t110 -86l180 82l12 -56l-162 -73q74 -129 64 -331t-74 -441l-49 -189q-18 -70 -58 -128t-93.5 -100t-115 -65.5t-124.5 -23.5q-66 0 -116 23.5t-78.5 65.5t-37 100.5z" />
<glyph unicode="&#xf1;" horiz-adv-x="849" d="M-63 0l268 1024h82l-31 -109q53 45 123 82t135 37q66 0 115 -23.5t79.5 -65.5t39 -100.5t-10.5 -127.5l-190 -717h-82l190 717q31 111 -14 173t-149 62q-98 0 -177 -62.5t-110 -172.5l-191 -717h-77zM291 1309q43 59 95 83.5t101 24.5q39 0 66 -15.5t50.5 -34.5t46 -34.5 t57.5 -15.5q29 0 58.5 19.5t53.5 54.5l64 -33q-41 -59 -91.5 -86t-103.5 -27q-37 0 -63.5 15.5t-50 35t-48 35t-59.5 15.5q-29 0 -58.5 -18.5t-52.5 -51.5z" />
<glyph unicode="&#xf2;" horiz-adv-x="798" d="M-26 179q8 -58 36.5 -100t77.5 -65.5t115 -23.5q63 0 125.5 23.5t116 65.5t93.5 100.5t58 127.5l106 410q18 72 9 130t-38.5 100t-79.5 64.5t-114 22.5q-66 0 -127 -22.5t-114.5 -64.5t-92.5 -100.5t-57 -129.5l-104 -410q-18 -70 -10 -128zM63 307l107 410 q31 113 106.5 174t180.5 61q98 0 146 -61.5t18 -173.5l-107 -410q-31 -111 -109.5 -173t-177.5 -62q-104 0 -149 62.5t-15 172.5zM465 1454h94l12 -246h-65z" />
<glyph unicode="&#xf3;" horiz-adv-x="798" d="M-26.5 179.5q-8.5 58.5 10.5 127.5l104 410q18 72 57 130t92.5 100t115 64.5t126.5 22.5q63 0 113.5 -22.5t80 -64.5t39 -100.5t-9.5 -129.5l-106 -410q-18 -70 -58 -128t-93.5 -100t-116 -65.5t-125.5 -23.5q-66 0 -115 23.5t-77.5 65.5t-37 100.5zM63 307 q-31 -111 14.5 -173t149.5 -62q98 0 177 62.5t110 172.5l107 410q31 113 -17.5 174t-146.5 61q-104 0 -180 -61.5t-107 -173.5zM494 1208l147 246h90l-172 -246h-65z" />
<glyph unicode="&#xf4;" horiz-adv-x="798" d="M-26 179q8 -58 36.5 -100t77.5 -65.5t115 -23.5q63 0 125.5 23.5t116 65.5t93.5 100.5t58 127.5l106 410q18 72 9 130t-38.5 100t-79.5 64.5t-114 22.5q-66 0 -127 -22.5t-114.5 -64.5t-92.5 -100.5t-57 -129.5l-104 -410q-18 -70 -10 -128zM63 307l107 410 q31 113 106.5 174t180.5 61q98 0 146 -61.5t18 -173.5l-107 -410q-31 -111 -109.5 -173t-177.5 -62q-104 0 -149 62.5t-15 172.5zM334 1208l211 246h94l76 -246h-94l-41 207l-152 -207h-94z" />
<glyph unicode="&#xf5;" horiz-adv-x="798" d="M-22.5 179.5q-8.5 58.5 10.5 127.5l106 410q18 72 57 130t91.5 100t115 64.5t127.5 22.5q63 0 112.5 -22.5t80.5 -64.5t40 -100.5t-9 -129.5l-109 -410q-18 -70 -58 -128t-93.5 -100t-115 -65.5t-124.5 -23.5q-66 0 -116 23.5t-78.5 65.5t-37 100.5zM68 307 q-29 -111 15 -173t148 -62q98 0 178 62.5t109 172.5l109 410q29 113 -18.5 174t-145.5 61q-104 0 -181 -61.5t-106 -173.5zM268 1309q43 59 94.5 83.5t100.5 24.5q39 0 66.5 -15.5t50 -34.5t46 -34.5t58.5 -15.5q29 0 58.5 19.5t54.5 54.5l63 -33q-41 -59 -91 -86t-103 -27 q-37 0 -64 15.5t-50.5 35t-48 35t-59.5 15.5q-29 0 -58.5 -18.5t-51.5 -51.5z" />
<glyph unicode="&#xf6;" horiz-adv-x="798" d="M-8 179.5q-8 58.5 8 127.5l106 410q18 72 57.5 130t92.5 100t115.5 64.5t128.5 22.5q63 0 112.5 -22.5t79 -64.5t38.5 -100.5t-9 -129.5l-107 -410q-18 -70 -58 -128t-93 -100t-115 -65.5t-125 -23.5q-66 0 -116 23.5t-78.5 65.5t-36.5 100.5zM82 307q-31 -111 14 -173 t150 -62q98 0 177 62.5t109 172.5l107 410q31 113 -16.5 174t-145.5 61q-104 0 -181 -61.5t-108 -173.5zM375 1260q4 23 22.5 37t40.5 14q23 0 33 -14.5t6 -36.5q-6 -23 -24.5 -37.5t-40.5 -14.5q-23 0 -33 14.5t-4 37.5zM641 1260q4 23 22.5 37t41.5 14t33 -14.5t5 -36.5 q-6 -23 -24.5 -37.5t-40.5 -14.5q-23 0 -33 14.5t-4 37.5z" />
<glyph unicode="&#xf7;" horiz-adv-x="1024" d="M172 614l21 82h655l-21 -82h-655zM375 420q10 29 36.5 50.5t55.5 21.5t45 -21.5t6 -50.5q-6 -29 -33.5 -50.5t-56.5 -21.5t-44 21.5t-9 50.5zM502 891q6 29 33.5 50.5t56.5 21.5t44 -21.5t9 -50.5q-10 -29 -36.5 -50.5t-55.5 -21.5t-45 21.5t-6 50.5z" />
<glyph unicode="&#xf8;" horiz-adv-x="798" d="M26.5 179.5q-8.5 58.5 10.5 127.5l106 410q18 72 57.5 130t92.5 100t114.5 64.5t127.5 22.5q63 0 113 -22.5t80 -64.5t39 -100.5t-9 -129.5l-107 -410q-18 -70 -58 -128t-93.5 -100t-115 -65.5t-124.5 -23.5q-66 0 -116 23.5t-79.5 65.5t-38 100.5zM119 307 q-35 -131 33 -192l419 829q-14 4 -28.5 6t-30.5 2q-104 0 -180 -61.5t-107 -173.5zM217 80q27 -8 66 -8q98 0 177 62.5t109 172.5l107 410q18 68 7 118t-46 78z" />
<glyph unicode="&#xf9;" horiz-adv-x="860" d="M3 179q7 -58 37 -100t79 -65.5t114 -23.5q74 0 147 32.5t130 88.5q0 -51 25.5 -81t91.5 -30l20 82q-31 0 -43 15.5t-12 43t9 66.5t22 88l192 729h-82l-192 -727q-31 -106 -111 -165.5t-172 -59.5q-104 0 -149.5 62.5t-14.5 172.5l189 717h-82l-189 -717q-16 -70 -9 -128z M504 1454h94l12 -246h-65z" />
<glyph unicode="&#xfa;" horiz-adv-x="860" d="M3 179.5q-7 58.5 9 127.5l189 717h82l-189 -717q-31 -111 14.5 -173t149.5 -62q92 0 172 59t111 166l192 727h82l-192 -729q-12 -49 -21.5 -88t-9.5 -66.5t12 -43t43 -15.5l-20 -82q-66 0 -91.5 29.5t-25.5 81.5q-57 -55 -130 -88t-147 -33q-66 0 -114.5 23.5t-78.5 65.5 t-37 100.5zM528 1208l148 246h90l-172 -246h-66z" />
<glyph unicode="&#xfb;" horiz-adv-x="860" d="M3 179q7 -58 37 -100t79 -65.5t114 -23.5q74 0 147 32.5t130 88.5q0 -51 25.5 -81t91.5 -30l20 82q-31 0 -43 15.5t-12 43t9 66.5t22 88l192 729h-82l-192 -727q-31 -106 -111 -165.5t-172 -59.5q-104 0 -149.5 62.5t-14.5 172.5l189 717h-82l-189 -717q-16 -70 -9 -128z M365 1208l210 246h95l75 -246h-94l-41 207l-151 -207h-94z" />
<glyph unicode="&#xfc;" horiz-adv-x="860" d="M20.5 179.5q-8.5 58.5 10.5 127.5l188 717h82l-188 -717q-31 -111 14 -173t149 -62q92 0 172 59t111 166l193 727h82l-193 -729q-12 -49 -21.5 -88t-8.5 -66.5t13.5 -43t43.5 -15.5l-21 -82q-66 0 -91.5 29.5t-27.5 81.5q-57 -55 -128.5 -88t-145.5 -33q-66 0 -116 23.5 t-79.5 65.5t-38 100.5zM401 1260q4 23 22.5 37t41.5 14t33 -14.5t6 -36.5q-6 -23 -24.5 -37.5t-41.5 -14.5t-33 14.5t-4 37.5zM668 1260q4 23 22.5 37t40.5 14q23 0 33 -14.5t6 -36.5q-6 -23 -24.5 -37.5t-40.5 -14.5q-23 0 -33 14.5t-4 37.5z" />
<glyph unicode="&#xfd;" horiz-adv-x="706" d="M-221 -545l22 82q74 4 144.5 50t109.5 120l115 225l20 1092h86l-18 -920l471 920h86l-684 -1333q-27 -53 -67.5 -95t-87 -73t-96.5 -48.5t-101 -19.5zM535 1208l145 246h90l-170 -246h-65z" />
<glyph unicode="&#xfe;" horiz-adv-x="829" d="M-133 -532l512 1966h82l-135 -519q51 45 120.5 82t135.5 37t116 -23.5t79.5 -65.5t37.5 -100.5t-10 -127.5l-105 -400q-18 -72 -58 -131t-93 -100t-114.5 -63.5t-125.5 -22.5q-78 0 -133 35l23 90q25 -20 58.5 -31.5t74.5 -11.5q98 0 177 61.5t109 173.5l105 400 q31 111 -13 173t-149 62q-98 0 -178 -62.5t-111 -172.5l-325 -1249h-80z" />
<glyph unicode="&#xff;" horiz-adv-x="706" d="M-201 -545l21 82q76 4 145.5 50t108.5 120l114 225l21 1092h86l-16 -920l469 920h86l-684 -1333q-27 -53 -68 -95t-87 -73t-96.5 -48.5t-99.5 -19.5zM399 1260q6 23 23.5 37t40.5 14t34 -14.5t5 -36.5q-6 -23 -23.5 -37.5t-40.5 -14.5t-34 14.5t-5 37.5zM666 1260 q6 23 23.5 37t39.5 14q23 0 34 -14.5t5 -36.5q-6 -23 -23.5 -37.5t-39.5 -14.5q-23 0 -34 14.5t-5 37.5z" />
<glyph unicode="&#x152;" horiz-adv-x="2048" d="M129 195q-84 195 0 501q80 305 275.5 511t500.5 206q264 0 342 -211l49 189h830l-43 -166h-647l-111 -424h596l-43 -164h-596l-125 -475h678l-43 -164h-860l51 203q-190 -225 -455 -226q-299 0 -399 220zM324 682q-74 -287 2.5 -423t238.5 -136q160 0 310.5 135 t232.5 449q74 289 -4 423t-236 134q-102 0 -213.5 -61.5t-193.5 -187.5t-137 -333z" />
<glyph unicode="&#x153;" horiz-adv-x="1933" d="M76 539q45 168 139 302t230.5 199.5t281.5 65.5q139 0 226 -57.5t118 -145.5q88 94 201.5 148.5t236.5 54.5q221 0 317.5 -150.5t14.5 -451.5h-784q-41 -166 24.5 -262.5t198.5 -96.5q100 0 185 55.5t149 166.5l170 -27q-86 -164 -226.5 -254t-318.5 -90 q-135 0 -227 53.5t-129 145.5q-104 -98 -215 -148.5t-234 -50.5q-225 0 -325.5 143.5t-32.5 399.5zM262 270q59 -125 207 -125q129 0 249 105.5t173 304.5q51 199 -12.5 301t-194.5 102q-88 0 -174 -49t-150.5 -145t-93.5 -211q-49 -186 -4 -283zM1104 651h588 q27 152 -31.5 229.5t-175.5 77.5q-121 0 -226.5 -82t-154.5 -225z" />
<glyph unicode="&#x178;" horiz-adv-x="839" d="M156 0h82l186 702q-29 -20 -45 -20q-19 0 -37 20zM195 1432q2 -10 12 -52.5t23.5 -101.5t29.5 -128t31.5 -132.5t28 -112.5t18.5 -69q10 -35 29.5 -46.5t35.5 -11.5q39 0 68 24.5t37 33.5l440 598h-88q-104 -141 -177 -237.5t-120 -160t-73.5 -98.5t-40 -52.5 t-17.5 -21.5l-4 -4q-6 18 -17.5 59.5t-24.5 93.5t-27.5 112.5t-28 117.5t-24.5 106.5t-19 82.5h-92zM449 1681q6 23 24.5 37.5t40.5 14.5q23 0 33 -14.5t4 -37.5t-24.5 -37t-41.5 -14t-32.5 14t-3.5 37zM715 1681q6 23 24.5 37.5t40.5 14.5q23 0 33 -14.5t4 -37.5t-24.5 -37 t-40.5 -14q-23 0 -33 14t-4 37z" />
<glyph unicode="&#x2c6;" horiz-adv-x="681" d="M-10 1108l286 281h191l151 -281h-202l-66 170l-157 -170h-203z" />
<glyph unicode="&#x2dc;" horiz-adv-x="825" d="M117 1309q41 59 92 83.5t100 24.5q39 0 66.5 -15.5t50.5 -34.5t46.5 -34.5t57.5 -15.5q29 0 60 19.5t53 54.5l66 -33q-43 -59 -93.5 -86t-103.5 -27q-37 0 -63.5 15.5t-50 35t-48 35t-59.5 15.5q-29 0 -57.5 -18.5t-53.5 -51.5z" />
<glyph unicode="&#x2000;" horiz-adv-x="958" />
<glyph unicode="&#x2001;" horiz-adv-x="1917" />
<glyph unicode="&#x2002;" horiz-adv-x="958" />
<glyph unicode="&#x2003;" horiz-adv-x="1917" />
<glyph unicode="&#x2004;" horiz-adv-x="639" />
<glyph unicode="&#x2005;" horiz-adv-x="479" />
<glyph unicode="&#x2006;" horiz-adv-x="319" />
<glyph unicode="&#x2007;" horiz-adv-x="319" />
<glyph unicode="&#x2008;" horiz-adv-x="239" />
<glyph unicode="&#x2009;" horiz-adv-x="383" />
<glyph unicode="&#x200a;" horiz-adv-x="106" />
<glyph unicode="&#x2010;" horiz-adv-x="798" d="M131 532l21 82h512l-21 -82h-512z" />
<glyph unicode="&#x2011;" horiz-adv-x="798" d="M131 532l21 82h512l-21 -82h-512z" />
<glyph unicode="&#x2012;" horiz-adv-x="798" d="M131 532l21 82h512l-21 -82h-512z" />
<glyph unicode="&#x2013;" horiz-adv-x="1130" d="M-23 459l37 143h1139l-41 -143h-1135z" />
<glyph unicode="&#x2014;" horiz-adv-x="2048" d="M-18 459l36 143h2048l-41 -143h-2043z" />
<glyph unicode="&#x2018;" horiz-adv-x="348" d="M88 1362q10 35 21.5 60.5t30 46t42 38t54.5 37.5h40q-55 -47 -60 -76.5t11 -60.5q6 -16 3 -36.5t-15 -38t-31.5 -30t-42.5 -12.5q-29 0 -45 21.5t-8 50.5z" />
<glyph unicode="&#x2019;" horiz-adv-x="348" d="M68 1311q55 47 60 76.5t-11 60.5q-6 16 -4 36.5t15 38t32.5 30t42.5 12.5q29 0 45 -21.5t8 -50.5q-16 -70 -51 -106.5t-96 -75.5h-41z" />
<glyph unicode="&#x201a;" horiz-adv-x="372" d="M25 -201q59 23 98 70t63 131h-94l55 209h195l-43 -166q-37 -133 -84 -193q-63 -80 -166 -120z" />
<glyph unicode="&#x201c;" horiz-adv-x="573" d="M88 1362q10 35 21.5 60.5t30 46t42 38t54.5 37.5h40q-55 -47 -60 -76.5t11 -60.5q6 -16 3 -36.5t-15 -38t-31.5 -30t-42.5 -12.5q-29 0 -45 21.5t-8 50.5zM313 1362q10 35 21.5 60.5t30 46t42 38t54.5 37.5h41q-55 -47 -60 -76.5t11 -60.5q6 -16 3 -36.5t-15.5 -38 t-32 -30t-41.5 -12.5q-29 0 -45.5 21.5t-8.5 50.5z" />
<glyph unicode="&#x201d;" horiz-adv-x="573" d="M68 1311q55 47 60 76.5t-11 60.5q-6 16 -4 36.5t15 38t32.5 30t42.5 12.5q29 0 45 -21.5t8 -50.5q-16 -70 -51 -106.5t-96 -75.5h-41zM293 1311q55 47 60 76.5t-11 60.5q-6 16 -4 36.5t15.5 38t33 30t41.5 12.5q29 0 45 -21.5t8 -50.5q-16 -70 -51 -106.5t-96 -75.5h-41z " />
<glyph unicode="&#x201e;" horiz-adv-x="681" d="M25 -201q59 23 98 70t63 131h-94l55 209h195l-43 -166q-37 -133 -84 -193q-63 -80 -166 -120zM334 -201q59 23 98 70t66 131h-95l56 209h192l-43 -166q-37 -133 -84 -193q-63 -80 -164 -120z" />
<glyph unicode="&#x2022;" horiz-adv-x="614" d="M102 594q20 86 95 145.5t161 59.5t130 -59.5t24 -145.5q-25 -86 -99.5 -145.5t-160.5 -59.5t-130.5 59.5t-19.5 145.5z" />
<glyph unicode="&#x2026;" horiz-adv-x="2050" d="M211 0l53 205h205l-53 -205h-205zM893 0l53 205h205l-53 -205h-205zM1575 0l53 205h207l-53 -205h-207z" />
<glyph unicode="&#x202f;" horiz-adv-x="383" />
<glyph unicode="&#x2039;" horiz-adv-x="681" d="M88 526l438 457h148l-387 -457l145 -454h-147z" />
<glyph unicode="&#x203a;" horiz-adv-x="681" d="M-29 72l385 458l-145 453h149l185 -446l-426 -465h-148z" />
<glyph unicode="&#x205f;" horiz-adv-x="479" />
<glyph unicode="&#x20ac;" horiz-adv-x="976" d="M38 236.5q-13 76.5 11 173.5l164 614q25 96 77 173t124.5 134.5t158.5 90t172 32.5t154 -32.5t98.5 -74.5t42.5 -71l-2 2l-77 -45q-12 20 -36 53t-78 59.5t-124 26.5t-138.5 -26.5t-127 -72.5t-100.5 -107.5t-62 -141.5l-37 -135h348l-22 -82h-348l-27 -102h348l-22 -82 h-349l-55 -213q-20 -80 -9 -141.5t45 -107.5t88 -73t124 -27t138.5 27t107.5 58.5t61 54.5l59 -45q-29 -29 -80 -70t-137 -73.5t-172 -32.5t-153.5 32.5t-109.5 90t-55 134z" />
<glyph unicode="&#x2122;" horiz-adv-x="2045" d="M313 1280l27 109h602l-27 -109h-239l-166 -629h-123l166 629h-240zM831 651l193 738h182l31 -590l336 590h178l-192 -738h-113l162 619l-353 -619h-112l-31 629l-166 -629h-115z" />
<glyph unicode="&#x25fc;" horiz-adv-x="1024" d="M0 0v1024h1024v-1024h-1024z" />
</font>
</defs>
</svg>
